<svg xmlns="http://www.w3.org/2000/svg" version="1.1" viewBox="0.00 0.00 500.00 500.00" width="500.00" height="500.00">
<g stroke-width="2.00" fill="none" stroke-linecap="butt">
<path stroke="#794029" d="&#10;  M 307.47 261.43&#10;  L 297.91 263.15"/>
<path stroke="#482e21" d="&#10;  M 297.91 263.15&#10;  L 293.81 262.23&#10;  Q 293.20 262.09 293.40 262.68&#10;  L 293.84 263.99"/>
<path stroke="#544432" d="&#10;  M 293.84 263.99&#10;  Q 292.90 263.42 292.47 262.79&#10;  A 1.88 1.85 78.3 0 0 291.30 262.01&#10;  L 289.77 261.71&#10;  Q 288.81 261.52 289.49 262.24&#10;  L 292.80 265.73&#10;  Q 292.93 265.87 292.81 266.01&#10;  L 292.64 266.21&#10;  Q 292.60 266.25 292.55 266.21&#10;  Q 290.34 264.46 288.76 262.02&#10;  A 1.23 1.22 76.0 0 0 287.87 261.48&#10;  L 281.69 260.87&#10;  Q 281.18 260.82 281.11 261.32&#10;  C 280.90 262.76 282.18 262.95 282.63 264.11&#10;  Q 282.92 264.86 282.21 264.49&#10;  C 280.17 263.43 278.61 262.10 276.86 260.68&#10;  Q 276.11 260.07 275.02 260.00&#10;  Q 263.85 259.29 253.34 259.45&#10;  A 1.64 1.60 20.0 0 0 252.15 259.99&#10;  C 249.31 263.14 246.56 264.60 246.67 269.53&#10;  Q 246.68 270.08 247.21 270.25&#10;  Q 251.95 271.77 255.56 275.46&#10;  A 1.84 1.80 -22.1 0 0 256.85 275.99&#10;  Q 275.68 275.80 295.72 278.62&#10;  A 0.40 0.40 0.0 0 0 296.12 278.02&#10;  Q 292.27 271.52 293.65 264.31"/>
<path stroke="#482e21" d="&#10;  M 293.65 264.31&#10;  L 296.57 263.60"/>
<path stroke="#794029" d="&#10;  M 296.57 263.60&#10;  C 294.96 264.38 293.72 265.33 293.76 267.32&#10;  Q 293.88 273.52 297.67 279.36&#10;  Q 299.59 282.32 301.96 283.25"/>
<path stroke="#544432" d="&#10;  M 301.96 283.25&#10;  Q 302.10 283.38 302.13 283.58&#10;  Q 302.19 283.95 301.83 283.83&#10;  Q 299.58 283.11 298.31 281.30&#10;  Q 297.48 280.10 295.94 279.90&#10;  Q 276.52 277.35 257.44 277.14&#10;  A 0.31 0.31 0.0 0 0 257.16 277.60&#10;  Q 260.58 284.00 259.05 290.49&#10;  Q 258.91 291.07 259.51 291.10&#10;  Q 274.96 291.73 291.61 292.64&#10;  Q 291.82 292.65 291.81 292.86&#10;  L 291.81 292.87&#10;  Q 291.80 292.95 291.72 292.94&#10;  Q 275.11 292.10 259.25 291.78&#10;  Q 258.61 291.77 258.38 292.36&#10;  C 253.28 305.33 235.21 306.29 229.06 293.60&#10;  Q 228.73 292.94 228.00 293.00&#10;  Q 204.95 294.79 181.87 299.40&#10;  C 179.62 299.86 177.91 301.25 175.55 301.14&#10;  C 172.77 301.02 170.38 301.61 168.27 303.52&#10;  Q 163.48 307.85 159.16 311.81&#10;  Q 156.50 314.24 154.55 316.71&#10;  Q 154.15 317.22 154.78 317.06&#10;  Q 171.61 312.73 191.20 310.50&#10;  Q 248.41 303.98 305.41 307.83&#10;  C 319.41 308.77 332.55 309.70 346.06 312.81&#10;  Q 346.85 312.99 346.26 312.43&#10;  C 337.30 304.11 328.79 295.95 319.69 288.87&#10;  Q 319.17 288.47 318.73 288.95&#10;  L 318.52 289.18&#10;  Q 318.13 289.61 317.56 289.67&#10;  Q 310.76 290.39 306.13 285.35&#10;  Q 305.04 284.18 302.81 282.56"/>
<path stroke="#794029" d="&#10;  M 302.81 282.56&#10;  C 302.15 281.85 300.75 279.79 300.48 278.83&#10;  Q 300.23 277.95 300.79 278.68&#10;  C 303.14 281.74 305.60 284.28 308.68 286.73&#10;  C 311.30 288.81 313.99 289.50 317.27 289.13&#10;  A 1.30 1.29 88.9 0 0 318.41 287.94&#10;  C 318.70 284.14 314.19 282.80 311.22 283.69&#10;  Q 310.96 283.76 310.92 283.49&#10;  L 310.88 283.24&#10;  Q 310.85 283.05 311.04 283.03&#10;  Q 313.93 282.62 317.04 283.65&#10;  A 1.21 1.18 -4.5 0 1 317.69 284.19&#10;  C 318.72 286.04 319.02 287.56 321.43 288.05"/>
<path stroke="#7f5824" d="&#10;  M 302.69 493.25&#10;  C 305.56 489.17 301.10 486.87 297.98 485.85&#10;  Q 297.48 485.69 296.98 485.86&#10;  C 293.37 487.10 289.83 488.14 286.66 490.52&#10;  Q 283.55 492.85 280.24 494.94&#10;  A 1.90 1.88 -49.0 0 1 278.48 495.07&#10;  Q 275.00 493.56 271.26 491.72&#10;  Q 269.60 490.90 268.37 491.76"/>
<path stroke="#7f5824" d="&#10;  M 257.06 493.71&#10;  Q 258.86 491.09 256.04 488.96&#10;  C 249.20 483.79 236.14 484.60 228.36 486.58&#10;  Q 227.06 486.91 223.54 488.96"/>
<path stroke="#4b4d4c" d="&#10;  M 174.44 407.78&#10;  Q 175.00 408.03 174.87 408.50&#10;  C 169.38 427.74 170.43 447.44 182.43 463.59&#10;  C 192.15 476.67 207.46 484.80 223.30 487.85&#10;  A 2.30 2.29 36.7 0 0 224.82 487.63&#10;  L 230.01 484.93"/>
<path stroke="#808080" d="&#10;  M 230.01 484.93&#10;  C 238.17 482.60 252.07 482.27 258.28 489.55&#10;  Q 258.66 490.00 259.24 489.95&#10;  L 265.28 489.42&#10;  Q 266.42 489.32 265.39 488.82&#10;  C 247.46 480.05 230.42 470.26 214.65 457.93"/>
<path stroke="#4b4d4c" d="&#10;  M 214.65 457.93&#10;  Q 204.12 449.51 196.11 439.89&#10;  Q 185.96 427.69 180.86 410.75&#10;  Q 180.61 409.92 179.74 409.63&#10;  C 177.99 409.04 176.20 407.82 174.57 406.99"/>
<path stroke="#3a342f" d="&#10;  M 180.67 327.06&#10;  L 181.74 313.65&#10;  A 0.41 0.41 0.0 0 0 181.27 313.21&#10;  C 171.82 314.63 162.20 316.00 153.28 319.09&#10;  Q 151.96 319.55 151.92 320.79&#10;  Q 151.90 321.41 152.47 321.65&#10;  Q 160.28 324.90 169.41 325.80"/>
<path stroke="#324966" d="&#10;  M 166.70 289.49&#10;  Q 167.44 289.38 167.88 288.99&#10;  Q 168.37 288.56 168.21 287.88&#10;  Q 167.93 286.75 166.37 286.72"/>
<path stroke="#212122" d="&#10;  M 174.59 272.69&#10;  L 175.27 272.80"/>
<path stroke="#324966" d="&#10;  M 175.27 272.80&#10;  Q 171.02 275.71 168.68 280.13&#10;  C 167.84 281.72 168.03 283.38 167.14 284.92&#10;  A 0.63 0.61 51.1 0 0 167.09 285.45&#10;  Q 167.27 285.94 167.73 285.95&#10;  A 0.62 0.61 76.7 0 1 168.28 286.29&#10;  Q 168.95 287.55 168.58 289.14&#10;  Q 168.45 289.67 168.00 289.96&#10;  Q 166.92 290.67 166.62 292.01&#10;  A 1.67 1.67 0.0 0 0 167.81 293.98&#10;  Q 170.36 294.69 169.85 297.51&#10;  Q 169.56 299.16 171.23 299.21&#10;  Q 171.96 299.23 172.58 298.48&#10;  Q 173.31 297.58 173.69 298.68&#10;  Q 173.79 299.00 173.78 299.35&#10;  Q 173.75 299.96 174.34 300.14&#10;  C 177.67 301.16 180.74 298.73 183.50 297.32"/>
<path stroke="#212122" d="&#10;  M 183.50 297.32&#10;  Q 184.13 297.64 184.51 297.58"/>
<path stroke="#544432" d="&#10;  M 184.51 297.58&#10;  Q 205.96 293.66 227.61 292.16&#10;  Q 228.08 292.13 228.03 291.66&#10;  L 227.60 287.53"/>
<path stroke="#7f5824" d="&#10;  M 227.60 287.53&#10;  Q 229.48 296.85 237.35 300.09&#10;  C 246.05 303.67 255.32 299.26 258.24 290.39&#10;  C 260.03 284.97 258.29 278.05 253.92 274.70&#10;  C 245.07 267.92 234.60 270.34 228.76 279.69"/>
<path stroke="#544432" d="&#10;  M 228.76 279.69&#10;  Q 228.85 279.34 228.82 279.04&#10;  Q 228.78 278.54 228.27 278.59&#10;  Q 211.92 280.25 196.56 283.51&#10;  A 1.83 1.82 -88.1 0 0 195.19 284.80&#10;  Q 194.05 288.76 191.42 292.16&#10;  Q 189.50 294.64 186.83 294.63"/>
<path stroke="#324966" d="&#10;  M 186.83 294.63&#10;  Q 190.62 292.79 191.58 291.10&#10;  Q 196.73 281.99 197.40 271.50&#10;  Q 197.42 271.24 197.81 270.99"/>
<path stroke="#544432" d="&#10;  M 197.81 270.99&#10;  Q 200.75 267.26 203.62 267.12&#10;  C 207.40 266.92 211.30 267.37 214.15 264.37&#10;  Q 215.85 262.58 213.46 263.21&#10;  Q 208.94 264.40 204.28 264.98&#10;  Q 202.06 265.25 200.38 266.46&#10;  Q 198.49 267.82 196.90 269.95"/>
<path stroke="#324966" d="&#10;  M 196.90 269.95&#10;  L 192.26 268.88"/>
<path stroke="#212122" d="&#10;  M 192.26 268.88&#10;  L 191.60 268.43"/>
<path stroke="#526986" d="&#10;  M 192.26 268.88&#10;  Q 191.70 269.45 191.00 269.44&#10;  Q 182.64 269.33 175.27 272.80"/>
<path stroke="#9b7151" d="&#10;  M 293.84 263.99&#10;  Q 293.75 264.15 293.65 264.31"/>
<path stroke="#7f5824" d="&#10;  M 295.82 496.86&#10;  Q 284.99 498.41 274.65 495.76&#10;  Q 274.17 495.64 273.83 495.29&#10;  Q 273.35 494.80 272.89 494.66"/>
<path stroke="#7f5824" d="&#10;  M 249.79 497.73&#10;  Q 237.36 499.83 225.74 495.94"/>
<path stroke="#794029" d="&#10;  M 307.95 261.32&#10;  Q 307.83 261.44 307.91 261.56&#10;  Q 307.97 261.67 308.09 261.67&#10;  Q 313.79 261.70 318.87 264.77"/>
<path stroke="#794029" d="&#10;  M 324.46 272.36&#10;  Q 324.76 273.84 322.87 273.38&#10;  A 1.58 1.57 86.7 0 1 321.77 272.39&#10;  Q 321.39 271.34 320.85 269.80&#10;  Q 320.79 269.64 320.62 269.69&#10;  L 320.62 269.69&#10;  Q 320.54 269.72 320.55 269.80&#10;  Q 320.88 271.49 321.27 273.03&#10;  A 1.17 1.16 -2.6 0 0 322.22 273.89&#10;  C 325.18 274.34 328.87 276.56 327.83 280.06&#10;  Q 327.69 280.53 327.28 280.81&#10;  L 324.03 283.00"/>
<path stroke="#cc835a" d="&#10;  M 302.81 282.56&#10;  Q 302.23 282.90 301.96 283.25"/>
<path stroke="#c06d49" d="&#10;  M 296.57 263.60&#10;  Q 297.14 263.94 297.91 263.15"/>
<path stroke="#858c96" d="&#10;  M 186.83 294.63&#10;  Q 186.71 294.91 186.14 295.32"/>
<path stroke="#526986" d="&#10;  M 186.14 295.32&#10;  Q 186.14 294.57 186.73 293.96&#10;  A 0.28 0.28 0.0 0 0 186.74 293.59&#10;  L 186.56 293.38&#10;  Q 186.46 293.26 186.33 293.36&#10;  Q 184.24 294.93 183.50 297.32"/>
<path stroke="#cacccb" d="&#10;  M 214.65 457.93&#10;  Q 214.35 469.84 221.96 478.03&#10;  C 224.04 480.26 227.42 482.50 230.01 484.93"/>
<path stroke="#544432" d="&#10;  M 229.47 281.36&#10;  Q 229.25 281.40 229.25 281.76"/>
<path stroke="#746452" d="&#10;  M 184.51 297.58&#10;  Q 184.78 296.41 186.14 295.32"/>
<path stroke="#858c96" d="&#10;  M 197.81 270.99&#10;  Q 197.38 270.23 196.90 269.95"/>
<path stroke="#d29b54" d="&#10;  M 227.60 287.53&#10;  Q 227.47 283.84 229.25 281.76"/>
<path stroke="#7f5824" d="&#10;  M 229.25 281.76&#10;  C 237.74 278.20 249.62 281.67 256.74 286.81&#10;  Q 256.92 286.94 257.06 286.76&#10;  L 257.06 286.75&#10;  Q 257.20 286.58 257.03 286.43&#10;  Q 247.32 278.62 234.74 279.66&#10;  Q 231.86 279.90 229.47 281.36"/>
<path stroke="#d29b54" d="&#10;  M 229.47 281.36&#10;  Q 228.43 281.02 228.76 279.69"/>
<path stroke="#544432" d="&#10;  M 197.06 239.67&#10;  Q 196.33 247.78 195.25 255.76&#10;  A 0.47 0.47 0.0 0 0 195.84 256.28&#10;  Q 198.75 255.50 201.92 255.04&#10;  C 204.39 254.67 205.34 252.93 207.15 251.60&#10;  C 209.45 249.90 214.01 248.38 216.24 251.20&#10;  Q 216.88 252.00 217.91 251.85&#10;  Q 228.58 250.30 239.88 249.48&#10;  Q 240.37 249.45 240.70 249.08&#10;  Q 246.91 242.24 253.81 248.42&#10;  Q 254.27 248.83 254.88 248.82&#10;  Q 264.47 248.58 274.34 249.36&#10;  Q 274.88 249.40 275.30 249.07&#10;  C 276.47 248.15 277.45 247.04 278.92 246.58&#10;  C 282.96 245.32 286.43 247.02 288.73 250.33&#10;  Q 289.09 250.84 289.70 250.95&#10;  L 302.77 253.15&#10;  Q 303.75 253.32 303.57 252.34&#10;  Q 302.00 243.95 301.42 235.85&#10;  A 2.12 2.11 5.2 0 0 299.84 233.96&#10;  C 266.82 225.34 231.39 226.51 198.80 236.31&#10;  C 196.82 236.90 197.21 238.03 197.06 239.67"/>
<path stroke="#482e21" d="&#10;  M 239.37 256.40&#10;  Q 238.50 253.74 240.05 251.01&#10;  A 0.40 0.40 0.0 0 0 239.67 250.42&#10;  Q 224.25 251.39 208.88 254.38&#10;  Q 208.48 254.45 208.16 254.68&#10;  Q 207.90 254.88 207.70 255.15&#10;  Q 207.36 255.62 206.82 255.83&#10;  Q 204.31 256.78 202.31 258.10&#10;  Q 199.80 259.75 201.60 257.35&#10;  L 202.26 256.47&#10;  Q 202.78 255.77 201.93 255.94&#10;  L 195.53 257.23&#10;  Q 195.39 257.26 195.35 257.39&#10;  Q 194.76 259.15 193.81 266.04&#10;  A 0.12 0.12 0.0 0 0 193.95 266.17&#10;  Q 216.43 261.19 238.28 259.48&#10;  Q 238.78 259.44 239.03 259.00&#10;  L 240.23 256.86"/>
<path stroke="#544432" d="&#10;  M 240.23 256.86&#10;  Q 241.16 255.93 241.62 254.74&#10;  Q 241.80 254.26 241.65 253.77&#10;  Q 241.27 252.59 241.97 251.57&#10;  C 244.64 247.70 248.68 248.86 252.62 249.01&#10;  Q 253.44 249.04 252.88 248.44&#10;  Q 251.12 246.56 248.77 246.29&#10;  C 241.59 245.47 240.40 250.88 239.37 256.40"/>
<path stroke="#9b7151" d="&#10;  M 240.23 256.86&#10;  Q 239.74 256.38 239.37 256.40"/>
<path stroke="#544432" d="&#10;  M 280.40 261.52&#10;  Q 279.86 259.42 278.04 258.59&#10;  Q 277.58 258.38 277.34 257.92&#10;  Q 275.63 254.62 277.47 251.76&#10;  C 280.13 247.61 283.77 250.57 287.43 250.78&#10;  Q 288.28 250.82 287.76 250.16&#10;  C 283.98 245.34 277.33 245.53 274.83 251.30&#10;  C 272.88 255.81 276.62 260.33 280.43 262.70&#10;  A 0.39 0.38 35.3 0 0 280.93 262.62&#10;  Q 281.32 262.16 280.77 261.94&#10;  A 0.64 0.63 4.0 0 1 280.40 261.52"/>
<path stroke="#482e21" d="&#10;  M 242.39 254.81&#10;  L 240.15 258.46&#10;  Q 239.70 259.19 240.55 259.16&#10;  Q 246.34 258.98 251.49 258.80&#10;  Q 263.44 258.38 274.58 259.14&#10;  A 0.49 0.49 0.0 0 0 275.04 258.42&#10;  Q 273.01 254.73 274.19 251.06&#10;  A 0.70 0.70 0.0 0 0 273.57 250.15&#10;  Q 260.03 249.28 245.37 250.00&#10;  C 243.61 250.08 242.02 251.70 242.56 253.48&#10;  Q 242.78 254.18 242.39 254.81"/>
<path stroke="#544432" d="&#10;  M 203.27 256.62&#10;  Q 203.78 256.59 204.32 256.23&#10;  C 205.36 255.54 206.29 255.39 206.98 254.19&#10;  Q 207.33 253.58 207.96 253.27&#10;  Q 209.22 252.66 210.61 252.75&#10;  Q 213.28 252.93 215.84 252.17&#10;  Q 216.46 251.99 215.96 251.57&#10;  C 210.98 247.36 206.44 253.51 203.06 256.07&#10;  A 0.31 0.31 0.0 0 0 203.27 256.62"/>
<path stroke="#482e21" d="&#10;  M 280.90 260.10&#10;  Q 288.24 260.38 295.91 261.94&#10;  C 298.96 262.56 301.33 261.50 304.33 261.26&#10;  A 0.82 0.82 0.0 0 0 305.06 260.25&#10;  L 303.81 254.93&#10;  Q 303.66 254.27 302.99 254.14&#10;  Q 292.67 252.14 281.45 250.79&#10;  C 277.00 250.25 275.52 256.48 278.83 258.14&#10;  C 279.69 258.57 280.16 259.21 280.67 259.97&#10;  A 0.27 0.27 0.0 0 0 280.90 260.10"/>
<path stroke="#544432" d="&#10;  M 246.14 268.40&#10;  C 246.45 264.57 248.53 262.55 251.20 260.20&#10;  Q 252.28 259.24 250.85 259.41&#10;  C 245.45 260.04 244.80 265.06 244.18 269.41&#10;  Q 244.11 269.91 244.62 269.96&#10;  L 245.47 270.03&#10;  A 0.48 0.48 0.0 0 0 246.00 269.62&#10;  Q 246.09 269.01 246.14 268.40"/>
<path stroke="#544432" d="&#10;  M 197.86 273.26&#10;  C 197.85 276.00 197.22 278.95 196.26 281.45&#10;  Q 195.96 282.24 196.79 282.07&#10;  Q 212.68 278.80 229.11 277.18&#10;  A 2.39 2.38 15.8 0 0 230.78 276.25&#10;  Q 235.43 270.12 242.85 269.78&#10;  Q 243.50 269.75 243.59 269.11&#10;  C 244.04 266.13 244.54 262.70 246.84 260.49&#10;  Q 247.66 259.72 246.53 259.76&#10;  Q 232.85 260.34 216.84 262.74&#10;  Q 215.90 262.88 215.34 263.69&#10;  Q 212.75 267.36 208.54 267.46&#10;  C 204.49 267.56 202.03 267.52 198.89 270.81&#10;  Q 197.87 271.88 197.86 273.26"/>
<path stroke="#544432" d="&#10;  M 195.45 269.00&#10;  C 195.94 269.18 196.52 269.05 196.87 268.66&#10;  Q 197.84 267.59 199.04 266.69&#10;  Q 200.42 265.67 198.75 266.06&#10;  L 193.58 267.27&#10;  A 0.53 0.53 0.0 0 0 193.34 268.17&#10;  C 194.03 268.80 194.67 268.71 195.45 269.00"/>
<path stroke="#808080" d="&#10;  M 250.21 308.04&#10;  Q 246.73 307.62 245.79 308.49"/>
<path stroke="#212122" d="&#10;  M 245.79 308.49&#10;  C 240.01 306.49 237.14 315.88 237.31 319.72&#10;  C 237.87 331.79 251.70 337.77 261.31 331.94&#10;  C 270.21 326.54 270.37 315.24 262.94 308.52&#10;  Q 262.17 307.82 261.00 307.80&#10;  Q 254.77 307.71 250.21 308.04"/>
<path stroke="#a0a0a1" d="&#10;  M 245.79 308.49&#10;  Q 244.40 310.22 243.04 312.01&#10;  Q 239.68 316.44 239.93 322.19&#10;  Q 240.00 323.77 241.58 323.76&#10;  L 242.02 323.76&#10;  Q 243.04 323.76 243.05 322.74&#10;  Q 243.12 318.87 243.72 317.24&#10;  Q 245.03 313.67 250.21 308.04"/>
<path stroke="#4b4d4c" d="&#10;  M 274.18 315.71&#10;  Q 279.25 314.92 284.65 315.74"/>
<path stroke="#808080" d="&#10;  M 284.65 315.74&#10;  L 289.58 316.94&#10;  Q 290.14 317.08 290.24 316.51&#10;  Q 290.93 312.39 293.50 309.22&#10;  Q 293.93 308.67 293.24 308.64&#10;  L 284.33 308.26"/>
<path stroke="#4b4d4c" d="&#10;  M 284.33 308.26&#10;  L 273.07 307.96"/>
<path stroke="#808080" d="&#10;  M 273.07 307.96&#10;  L 265.67 307.92&#10;  Q 264.93 307.92 265.44 308.45&#10;  Q 268.57 311.73 269.53 315.86&#10;  Q 269.67 316.45 270.27 316.35&#10;  L 274.18 315.71"/>
<path stroke="#cacccb" d="&#10;  M 273.07 307.96&#10;  Q 274.32 311.93 274.18 315.71"/>
<path stroke="#cacccb" d="&#10;  M 284.33 308.26&#10;  L 284.65 315.74"/>
<path stroke="#4b4d4c" d="&#10;  M 205.44 310.46&#10;  L 184.94 312.82&#10;  Q 184.35 312.89 184.25 313.48&#10;  Q 180.49 336.73 191.42 358.81&#10;  C 192.57 361.14 195.75 362.13 197.89 363.35&#10;  C 200.30 364.72 203.12 363.38 205.80 364.46&#10;  C 207.68 365.22 209.65 364.18 211.79 364.69&#10;  C 221.30 366.94 227.74 370.91 238.63 376.35"/>
<path stroke="#808080" d="&#10;  M 238.63 376.35&#10;  Q 246.58 380.69 255.15 385.12&#10;  C 266.47 390.98 283.55 393.78 294.10 385.39&#10;  Q 301.77 379.28 308.24 373.14&#10;  C 310.10 371.38 311.44 369.32 313.13 367.42&#10;  C 317.76 362.25 321.20 353.26 322.31 347.51&#10;  Q 324.46 336.40 318.32 323.22&#10;  Q 317.89 322.30 317.70 323.30&#10;  C 315.23 336.10 300.01 340.52 292.68 328.86&#10;  Q 292.37 328.37 292.06 328.86&#10;  C 288.52 334.53 278.15 333.58 272.81 331.84&#10;  Q 269.20 330.67 268.29 328.03&#10;  Q 268.06 327.37 267.70 327.97&#10;  C 263.61 334.79 254.66 337.72 247.31 334.99&#10;  Q 236.87 331.12 235.57 320.35&#10;  Q 235.48 319.65 234.77 319.69&#10;  L 203.89 321.54"/>
<path stroke="#4b4d4c" d="&#10;  M 203.89 321.54&#10;  L 193.44 322.40&#10;  A 4.07 4.06 -80.1 0 0 190.06 324.78&#10;  L 187.15 331.23&#10;  A 1.41 1.40 26.0 0 1 185.22 331.89&#10;  L 184.67 331.60&#10;  Q 183.41 330.93 183.95 329.60&#10;  C 185.95 324.64 187.63 319.62 192.98 318.77"/>
<path stroke="#212122" d="&#10;  M 192.98 318.77&#10;  Q 193.09 319.20 193.43 319.50&#10;  Q 193.74 319.77 194.15 319.79&#10;  C 204.04 320.06 214.04 319.19 224.25 318.35&#10;  Q 225.01 318.29 224.43 317.79&#10;  Q 224.03 317.44 223.50 317.51&#10;  Q 217.75 318.28 212.33 317.43"/>
<path stroke="#808080" d="&#10;  M 212.33 317.43&#10;  L 235.52 315.03&#10;  Q 236.09 314.97 236.28 314.43&#10;  Q 237.47 311.04 239.65 308.66&#10;  A 0.27 0.27 0.0 0 0 239.44 308.21&#10;  L 205.44 310.46"/>
<path stroke="#a0a0a1" d="&#10;  M 212.33 317.43&#10;  Q 209.30 316.93 205.44 317.86"/>
<path stroke="#cacccb" d="&#10;  M 205.44 317.86&#10;  Q 204.29 318.09 204.23 317.00&#10;  Q 204.15 315.59 205.44 310.46"/>
<path stroke="#6b6d6d" d="&#10;  M 205.44 317.86&#10;  Q 204.16 317.81 204.00 318.33"/>
<path stroke="#4b4d4c" d="&#10;  M 204.00 318.33&#10;  Q 198.63 317.79 193.40 318.78"/>
<path stroke="#6b6d6d" d="&#10;  M 193.40 318.78&#10;  Q 193.63 319.08 192.98 318.77"/>
<path stroke="#cacccb" d="&#10;  M 203.89 321.54&#10;  Q 202.24 330.29 204.35 339.23&#10;  Q 206.59 348.73 213.98 355.04&#10;  Q 221.75 361.68 230.03 367.67&#10;  Q 235.48 371.62 238.63 376.35"/>
<path stroke="#212122" d="&#10;  M 193.40 318.78&#10;  L 204.15 319.16&#10;  A 0.50 0.49 79.6 0 0 204.62 318.47&#10;  Q 204.46 318.08 204.00 318.33"/>
<path stroke="#808080" d="&#10;  M 302.43 309.32&#10;  Q 297.82 307.35 295.62 312.17"/>
<path stroke="#212122" d="&#10;  M 295.62 312.17&#10;  Q 295.19 310.97 296.19 309.74&#10;  Q 297.63 307.97 295.70 309.20&#10;  Q 294.33 310.08 293.37 312.20&#10;  Q 290.11 319.39 293.00 326.13&#10;  C 297.30 336.15 309.97 336.87 314.76 326.99&#10;  Q 318.59 319.08 313.79 311.11&#10;  C 313.11 309.97 311.96 309.69 310.75 309.56&#10;  Q 305.69 309.03 302.43 309.32"/>
<path stroke="#a0a0a1" d="&#10;  M 295.62 312.17&#10;  Q 293.13 316.73 293.59 322.24&#10;  Q 293.72 323.85 295.43 323.83&#10;  A 1.20 1.20 0.0 0 0 296.60 322.51&#10;  Q 295.78 314.86 302.43 309.32"/>
<path stroke="#3a342f" d="&#10;  M 323.35 324.13&#10;  Q 334.95 321.93 346.74 317.86&#10;  Q 347.72 317.53 348.47 316.87&#10;  A 0.96 0.96 0.0 0 0 348.20 315.25&#10;  Q 343.84 313.55 339.09 312.70&#10;  Q 328.53 310.79 317.86 310.12&#10;  A 0.55 0.55 0.0 0 0 317.27 310.66&#10;  Q 317.16 317.80 321.08 324.27&#10;  Q 321.34 324.71 321.83 324.54&#10;  Q 322.55 324.28 323.35 324.13"/>
<path stroke="#808080" d="&#10;  M 274.35 318.89&#10;  L 270.67 319.60&#10;  Q 270.18 319.70 270.14 320.20&#10;  Q 269.87 323.64 268.39 326.82&#10;  Q 268.34 326.93 268.41 326.84&#10;  Q 270.76 324.09 274.26 323.37"/>
<path stroke="#4b4d4c" d="&#10;  M 274.26 323.37&#10;  Q 278.98 322.49 283.35 323.62"/>
<path stroke="#7f5824" d="&#10;  M 283.35 323.62&#10;  C 279.18 323.82 272.01 324.24 269.01 327.42&#10;  Q 268.63 327.82 268.90 328.30&#10;  Q 269.92 330.15 271.81 330.75&#10;  C 276.78 332.33 285.93 332.53 290.59 328.72&#10;  A 1.07 1.06 -43.7 0 0 290.63 327.10&#10;  L 288.19 324.95"/>
<path stroke="#4b4d4c" d="&#10;  M 288.19 324.95&#10;  Q 288.14 324.81 288.51 324.61"/>
<path stroke="#808080" d="&#10;  M 288.51 324.61&#10;  L 290.45 325.70&#10;  Q 291.21 326.12 290.92 325.30&#10;  Q 289.95 322.50 290.03 319.68&#10;  Q 290.05 319.05 289.42 318.97&#10;  L 285.19 318.41"/>
<path stroke="#4b4d4c" d="&#10;  M 285.19 318.41&#10;  Q 279.71 317.93 274.35 318.89"/>
<path stroke="#cacccb" d="&#10;  M 285.19 318.41&#10;  Q 284.72 320.91 285.66 323.23&#10;  A 1.07 1.06 -1.2 0 0 286.31 323.85&#10;  L 288.51 324.61"/>
<path stroke="#c9a46f" d="&#10;  M 288.19 324.95&#10;  L 283.35 323.62"/>
<path stroke="#cacccb" d="&#10;  M 274.26 323.37&#10;  L 274.35 318.89"/>
<path stroke="#4b4d4c" d="&#10;  M 153.33 343.42&#10;  C 149.06 342.47 149.27 349.40 149.60 351.64&#10;  Q 152.55 371.89 164.59 389.78&#10;  C 168.72 395.93 172.73 402.10 179.05 406.20&#10;  Q 179.59 406.55 179.46 405.92&#10;  C 175.81 388.12 172.68 370.42 167.94 353.01&#10;  A 3.71 3.68 10.1 0 0 166.49 350.95&#10;  Q 162.02 347.87 157.50 345.10&#10;  Q 155.59 343.93 153.33 343.42"/>
<path stroke="#783949" d="&#10;  M 178.58 390.79&#10;  L 179.46 394.05"/>
<path stroke="#808080" d="&#10;  M 179.46 394.05&#10;  Q 179.29 395.23 180.19 397.75"/>
<path stroke="#7e7076" d="&#10;  M 180.19 397.75&#10;  Q 185.05 428.54 207.87 449.21"/>
<path stroke="#808080" d="&#10;  M 207.87 449.21&#10;  L 217.09 457.30"/>
<path stroke="#7e7076" d="&#10;  M 217.09 457.30&#10;  Q 232.69 469.74 251.43 480.09"/>
<path stroke="#808080" d="&#10;  M 251.43 480.09&#10;  L 257.10 483.34"/>
<path stroke="#7e7076" d="&#10;  M 257.10 483.34&#10;  L 278.49 494.25&#10;  A 1.52 1.51 -47.2 0 0 279.98 494.19&#10;  Q 289.35 488.48 297.32 480.50"/>
<path stroke="#808080" d="&#10;  M 297.32 480.50&#10;  L 303.70 473.23"/>
<path stroke="#7e7076" d="&#10;  M 303.70 473.23&#10;  Q 307.10 469.03 309.33 465.56&#10;  Q 322.08 445.68 328.55 423.38"/>
<path stroke="#808080" d="&#10;  M 328.55 423.38&#10;  L 332.81 407.30"/>
<path stroke="#7e7076" d="&#10;  M 332.81 407.30&#10;  Q 332.84 407.26 332.87 407.22&#10;  Q 332.90 407.18 332.92 407.12&#10;  Q 337.67 387.74 337.58 368.26&#10;  Q 337.55 360.81 335.25 354.38&#10;  A 1.23 1.22 -21.6 0 0 333.60 353.67&#10;  Q 327.18 356.48 321.66 360.87"/>
<path stroke="#783949" d="&#10;  M 321.66 360.87&#10;  Q 318.18 362.60 314.58 366.85"/>
<path stroke="#7e7076" d="&#10;  M 314.58 366.85&#10;  Q 313.56 367.41 312.41 369.64"/>
<path stroke="#783949" d="&#10;  M 312.41 369.64&#10;  L 299.17 382.89"/>
<path stroke="#808080" d="&#10;  M 299.17 382.89&#10;  L 296.47 385.39"/>
<path stroke="#783949" d="&#10;  M 296.47 385.39&#10;  Q 294.98 386.50 293.49 387.62&#10;  C 289.54 390.58 284.71 391.96 279.79 392.25"/>
<path stroke="#808080" d="&#10;  M 279.79 392.25&#10;  L 277.25 392.32"/>
<path stroke="#783949" d="&#10;  M 277.25 392.32&#10;  Q 267.29 392.17 257.76 387.79&#10;  Q 253.62 385.89 249.44 383.46"/>
<path stroke="#808080" d="&#10;  M 249.44 383.46&#10;  L 245.96 381.57"/>
<path stroke="#783949" d="&#10;  M 245.96 381.57&#10;  L 218.85 367.44"/>
<path stroke="#7e7076" d="&#10;  M 218.85 367.44&#10;  C 215.97 366.22 213.97 366.10 211.52 365.18&#10;  Q 210.27 364.71 208.87 365.32&#10;  Q 208.11 365.64 208.92 365.79&#10;  C 210.12 366.01 211.13 366.04 212.27 366.61&#10;  Q 215.27 368.10 218.42 369.31"/>
<path stroke="#783949" d="&#10;  M 218.42 369.31&#10;  L 243.72 384.89"/>
<path stroke="#808080" d="&#10;  M 243.72 384.89&#10;  L 248.35 387.65"/>
<path stroke="#783949" d="&#10;  M 248.35 387.65&#10;  C 256.34 392.81 266.35 396.58 276.06 396.86"/>
<path stroke="#808080" d="&#10;  M 276.06 396.86&#10;  L 280.63 396.50"/>
<path stroke="#783949" d="&#10;  M 280.63 396.50&#10;  Q 290.64 395.30 298.43 388.82"/>
<path stroke="#808080" d="&#10;  M 298.43 388.82&#10;  L 302.18 385.42"/>
<path stroke="#783949" d="&#10;  M 302.18 385.42&#10;  Q 307.59 379.34 311.64 372.30&#10;  Q 311.74 372.11 311.93 372.22&#10;  L 311.93 372.22&#10;  Q 312.12 372.33 312.01 372.51&#10;  Q 307.99 379.60 302.61 385.73"/>
<path stroke="#808080" d="&#10;  M 302.61 385.73&#10;  L 298.52 389.43"/>
<path stroke="#783949" d="&#10;  M 298.52 389.43&#10;  Q 290.58 395.92 280.75 397.22"/>
<path stroke="#808080" d="&#10;  M 280.75 397.22&#10;  L 277.91 397.61"/>
<path stroke="#783949" d="&#10;  M 277.91 397.61&#10;  Q 266.78 397.60 256.42 392.88&#10;  Q 252.49 391.10 248.22 388.56"/>
<path stroke="#808080" d="&#10;  M 248.22 388.56&#10;  L 243.65 385.78"/>
<path stroke="#783949" d="&#10;  M 243.65 385.78&#10;  Q 231.43 377.26 218.08 370.10"/>
<path stroke="#808080" d="&#10;  M 218.08 370.10&#10;  L 212.36 367.60"/>
<path stroke="#783949" d="&#10;  M 212.36 367.60&#10;  Q 207.97 365.86 203.36 364.99&#10;  Q 199.95 364.34 202.94 366.10&#10;  Q 204.90 367.25 208.57 369.08&#10;  Q 208.78 369.18 208.67 369.40&#10;  L 208.67 369.41&#10;  Q 208.56 369.62 208.35 369.51&#10;  Q 200.99 365.84 193.58 362.24"/>
<path stroke="#7e7076" d="&#10;  M 193.58 362.24&#10;  L 169.47 350.16&#10;  Q 168.29 349.57 168.89 350.74&#10;  Q 169.44 351.84 169.94 353.55&#10;  Q 175.20 371.95 178.58 390.79"/>
<path stroke="#f5a8be" d="&#10;  M 193.58 362.24&#10;  Q 187.17 364.27 184.97 369.52&#10;  Q 184.27 371.22 183.69 373.12&#10;  Q 181.11 381.70 179.30 390.52&#10;  Q 179.24 390.83 178.93 390.86&#10;  Q 178.74 390.88 178.58 390.79"/>
<path stroke="#f7b8c8" d="&#10;  M 212.36 367.60&#10;  Q 211.54 368.95 210.61 369.48&#10;  A 0.77 0.77 0.0 0 0 210.54 370.78&#10;  L 213.95 373.27"/>
<path stroke="#f5a8be" d="&#10;  M 213.95 373.27&#10;  Q 212.12 373.41 211.80 372.99"/>
<path stroke="#f7b8c8" d="&#10;  M 211.80 372.99&#10;  Q 210.89 371.40 209.55 371.04&#10;  Q 209.05 370.91 208.66 371.24&#10;  Q 194.70 383.25 179.46 394.05"/>
<path stroke="#fdeff5" d="&#10;  M 211.80 372.99&#10;  L 211.77 373.36&#10;  Q 211.73 373.82 211.32 374.01&#10;  Q 207.59 375.78 204.42 378.77&#10;  C 200.81 382.19 196.85 384.88 193.06 388.00&#10;  C 189.94 390.58 186.21 392.73 182.81 395.01&#10;  C 181.97 395.57 181.84 396.29 180.99 396.77&#10;  A 0.04 0.04 0.0 0 0 181.01 396.84&#10;  Q 181.17 396.84 181.26 396.97&#10;  Q 181.42 397.20 181.27 397.44&#10;  Q 180.84 398.12 180.19 397.75"/>
<path stroke="#f7b8c8" d="&#10;  M 218.08 370.10&#10;  Q 214.02 394.26 212.12 418.25&#10;  Q 210.97 432.73 211.07 447.24&#10;  A 0.39 0.39 0.0 0 0 211.62 447.59&#10;  Q 211.89 447.47 212.09 447.11&#10;  Q 223.66 425.01 234.57 402.58&#10;  Q 236.40 398.81 243.65 385.78"/>
<path stroke="#f7b8c8" d="&#10;  M 248.22 388.56&#10;  Q 245.11 410.91 246.94 432.95&#10;  Q 248.87 456.12 254.24 477.47&#10;  Q 254.85 479.88 255.57 477.50&#10;  Q 267.32 438.51 275.31 398.54&#10;  Q 275.41 398.04 275.89 397.84&#10;  Q 276.72 397.50 277.91 397.61"/>
<path stroke="#f7b8c8" d="&#10;  M 280.75 397.22&#10;  Q 283.64 410.09 287.02 422.51&#10;  Q 291.79 440.06 296.60 457.32&#10;  C 297.66 461.12 298.66 465.91 298.78 469.84&#10;  Q 298.82 471.16 298.94 472.54&#10;  Q 299.12 474.45 299.73 472.63&#10;  C 308.74 445.65 307.88 416.20 298.52 389.43"/>
<path stroke="#f7b8c8" d="&#10;  M 302.61 385.73&#10;  Q 315.97 397.66 325.23 412.83&#10;  Q 326.64 415.13 327.67 417.81&#10;  Q 328.85 420.85 328.87 417.59&#10;  C 328.99 403.52 326.02 386.96 316.76 375.77"/>
<path stroke="#fdeff5" d="&#10;  M 328.55 423.38&#10;  Q 325.71 420.73 323.88 417.05&#10;  Q 321.65 412.55 320.68 411.16&#10;  Q 315.88 404.28 310.77 398.41&#10;  Q 309.52 396.97 308.58 395.54&#10;  C 307.46 393.82 305.82 392.36 304.07 391.36&#10;  Q 301.53 389.90 302.41 392.69&#10;  Q 306.51 405.71 307.74 417.06&#10;  C 308.11 420.45 308.77 423.87 308.90 427.34&#10;  Q 309.32 438.87 308.08 447.14&#10;  Q 307.25 452.69 306.62 458.48&#10;  C 306.34 461.11 305.18 463.28 304.63 465.90&#10;  Q 304.53 466.36 303.49 468.97&#10;  Q 302.71 470.94 303.70 473.23"/>
<path stroke="#fdeff5" d="&#10;  M 297.32 480.50&#10;  Q 296.37 479.82 296.39 479.34&#10;  Q 296.66 467.31 293.00 456.81&#10;  Q 291.37 452.12 290.37 447.18&#10;  Q 289.40 442.44 288.04 437.90&#10;  Q 285.35 428.96 283.92 422.49&#10;  Q 282.11 414.36 279.81 405.41&#10;  Q 279.53 404.31 278.98 403.42&#10;  A 0.70 0.70 0.0 0 0 277.72 403.56&#10;  Q 275.77 409.26 274.72 414.94&#10;  C 273.06 423.85 270.94 432.53 269.05 441.25&#10;  Q 268.55 443.54 267.32 447.39&#10;  Q 266.46 450.10 265.60 453.54&#10;  Q 263.72 461.08 257.10 483.34"/>
<path stroke="#fdeff5" d="&#10;  M 251.43 480.09&#10;  Q 247.02 460.54 245.77 451.24&#10;  Q 243.55 434.71 243.22 424.70&#10;  Q 243.03 419.22 243.09 414.09&#10;  C 243.17 407.34 243.95 400.91 244.31 394.25&#10;  Q 244.36 393.42 243.93 393.02&#10;  A 0.56 0.56 0.0 0 0 243.05 393.16&#10;  Q 237.85 402.70 233.44 412.43&#10;  Q 232.00 415.59 230.34 418.47&#10;  C 227.51 423.38 225.54 428.76 222.78 433.66&#10;  Q 219.70 439.12 216.57 444.56&#10;  C 216.14 445.32 215.92 446.24 215.59 447.04&#10;  Q 215.42 447.45 215.07 447.72&#10;  Q 213.93 448.62 213.38 450.00&#10;  A 1.93 1.93 0.0 0 0 214.04 452.27&#10;  Q 215.60 453.39 216.87 454.88&#10;  Q 217.38 455.48 217.09 457.30"/>
<path stroke="#fdeff5" d="&#10;  M 207.87 449.21&#10;  Q 207.69 446.54 208.01 443.88&#10;  Q 208.37 440.80 208.25 438.61&#10;  Q 208.01 434.20 208.19 429.89&#10;  Q 208.86 414.51 210.61 398.61&#10;  Q 210.71 397.66 210.54 396.73&#10;  Q 210.39 395.90 210.72 395.17&#10;  Q 211.13 394.27 211.32 393.35&#10;  Q 213.42 383.08 213.95 373.27"/>
<path stroke="#f7b8c8" d="&#10;  M 302.18 385.42&#10;  L 299.17 382.89"/>
<path stroke="#fdeff5" d="&#10;  M 332.81 407.30&#10;  Q 332.65 407.09 332.61 406.83&#10;  Q 332.53 406.31 332.03 406.21&#10;  L 331.54 406.10&#10;  A 1.02 1.01 82.3 0 1 330.85 405.57&#10;  Q 329.50 402.93 329.25 400.36&#10;  C 328.86 396.43 327.52 392.90 326.37 389.22&#10;  C 325.19 385.48 323.26 382.07 321.65 378.36&#10;  C 321.22 377.36 320.53 376.71 319.89 375.85&#10;  C 319.10 374.80 317.61 374.79 316.76 375.77"/>
<path stroke="#f5a8be" d="&#10;  M 316.76 375.77&#10;  Q 312.68 372.83 312.41 369.64"/>
<path stroke="#f5a8be" d="&#10;  M 314.58 366.85&#10;  Q 325.35 368.88 335.75 370.58&#10;  Q 336.42 370.69 336.47 370.67&#10;  A 0.97 0.96 -24.5 0 0 336.96 369.37&#10;  Q 332.60 360.18 321.66 360.87"/>
<path stroke="#f7b8c8" d="&#10;  M 298.43 388.82&#10;  L 296.47 385.39"/>
<path stroke="#f7b8c8" d="&#10;  M 280.63 396.50&#10;  L 279.79 392.25"/>
<path stroke="#f7b8c8" d="&#10;  M 277.25 392.32&#10;  Q 275.92 393.16 276.06 396.86"/>
<path stroke="#f7b8c8" d="&#10;  M 249.44 383.46&#10;  L 248.35 387.65"/>
<path stroke="#f7b8c8" d="&#10;  M 245.96 381.57&#10;  Q 245.42 383.24 243.72 384.89"/>
<path stroke="#f5a8be" d="&#10;  M 218.85 367.44&#10;  L 218.42 369.31"/>
<path stroke="#4b4d4c" d="&#10;  M 341.61 386.32&#10;  Q 346.20 375.26 349.38 364.54&#10;  C 350.54 360.63 352.56 351.03 344.99 352.37&#10;  Q 341.41 353.00 337.50 354.25&#10;  A 0.69 0.68 -16.5 0 0 337.04 355.09&#10;  C 340.53 367.83 339.22 381.40 337.33 394.18&#10;  Q 337.18 395.24 337.59 394.25&#10;  C 337.90 393.50 338.45 393.36 338.79 392.65&#10;  Q 340.27 389.54 341.61 386.32"/>
<path stroke="#808080" d="&#10;  M 332.08 418.67&#10;  C 325.50 441.12 315.22 462.25 299.68 479.26&#10;  Q 298.70 480.33 297.52 481.17&#10;  Q 297.38 481.27 297.47 481.41&#10;  L 297.61 481.64&#10;  Q 297.68 481.74 297.80 481.69&#10;  C 314.70 473.94 329.25 460.02 332.73 441.48&#10;  C 334.11 434.08 333.67 425.69 332.82 418.11&#10;  Q 332.76 417.64 332.46 417.99&#10;  Q 332.19 418.30 332.08 418.67"/>
<path stroke="#c06d49" d="&#10;  M 300.6925 266.2936&#10;  A 1.22 1.22 0.0 0 0 300.3308 264.6066&#10;  L 299.9950 264.3893&#10;  A 1.22 1.22 0.0 0 0 298.3080 264.7510&#10;  L 297.5475 265.9264&#10;  A 1.22 1.22 0.0 0 0 297.9092 267.6134&#10;  L 298.2450 267.8307&#10;  A 1.22 1.22 0.0 0 0 299.9320 267.4690&#10;  L 300.6925 266.2936"/>
<path stroke="#794029" d="&#10;  M 305.39 266.96&#10;  Q 305.27 266.86 305.16 266.97&#10;  Q 302.98 269.24 302.38 272.32&#10;  Q 302.35 272.51 302.54 272.56&#10;  L 302.55 272.56&#10;  Q 302.76 272.62 302.83 272.41&#10;  Q 303.70 269.61 305.41 267.12&#10;  Q 305.47 267.03 305.39 266.97&#10;  L 305.39 266.96"/>
<path stroke="#794029" d="&#10;  M 305.72 273.92&#10;  Q 306.81 271.31 308.31 269.07&#10;  Q 309.29 267.62 308.07 268.87&#10;  Q 305.96 271.03 305.46 273.84&#10;  Q 305.24 275.07 305.72 273.92"/>
<path stroke="#794029" d="&#10;  M 309.03 276.99&#10;  Q 310.51 273.58 312.48 270.40&#10;  Q 312.53 270.32 312.45 270.26&#10;  L 312.45 270.25&#10;  Q 312.32 270.16 312.23 270.28&#10;  Q 309.78 273.19 308.77 276.88&#10;  Q 308.74 277.01 308.87 277.06&#10;  L 308.88 277.06&#10;  Q 308.98 277.10 309.03 276.99"/>
<path stroke="#794029" d="&#10;  M 320.68 286.85&#10;  Q 321.76 288.32 321.53 286.54&#10;  Q 321.49 286.22 321.12 286.15&#10;  Q 320.52 286.02 320.23 285.47&#10;  L 318.78 282.69&#10;  Q 318.63 282.42 318.37 282.57&#10;  L 318.09 282.72&#10;  Q 317.87 282.84 318.01 283.05&#10;  Q 319.44 285.17 320.68 286.85"/>
<path stroke="#324966" d="&#10;  M 179.55 278.65&#10;  Q 180.65 282.46 183.62 284.86&#10;  Q 183.72 284.95 183.81 284.85&#10;  L 183.82 284.85&#10;  Q 183.94 284.72 183.82 284.60&#10;  Q 181.23 281.96 179.70 278.44&#10;  Q 179.67 278.36 179.59 278.36&#10;  Q 179.54 278.35 179.49 278.34&#10;  Q 179.32 278.32 179.44 278.44&#10;  Q 179.52 278.53 179.55 278.65"/>
<path stroke="#324966" d="&#10;  M 177.30 282.12&#10;  Q 178.24 285.27 180.95 287.36&#10;  Q 181.00 287.40 181.06 287.38&#10;  Q 181.24 287.33 181.11 287.19&#10;  Q 178.89 284.91 177.59 282.02&#10;  Q 177.53 281.88 177.39 281.93&#10;  L 177.39 281.94&#10;  Q 177.26 281.99 177.30 282.12"/>
<path stroke="#526986" d="&#10;  M 178.0490 289.0132&#10;  A 2.80 0.31 52.9 0 0 176.6073 286.5930&#10;  A 2.80 0.31 52.9 0 0 174.6710 284.5468&#10;  A 2.80 0.31 52.9 0 0 176.1127 286.9670&#10;  A 2.80 0.31 52.9 0 0 178.0490 289.0132"/>
</g>
<path fill="#010101" d="&#10;  M 307.47 261.43&#10;  L 297.91 263.15&#10;  L 293.81 262.23&#10;  Q 293.20 262.09 293.40 262.68&#10;  L 293.84 263.99&#10;  Q 292.90 263.42 292.47 262.79&#10;  A 1.88 1.85 78.3 0 0 291.30 262.01&#10;  L 289.77 261.71&#10;  Q 288.81 261.52 289.49 262.24&#10;  L 292.80 265.73&#10;  Q 292.93 265.87 292.81 266.01&#10;  L 292.64 266.21&#10;  Q 292.60 266.25 292.55 266.21&#10;  Q 290.34 264.46 288.76 262.02&#10;  A 1.23 1.22 76.0 0 0 287.87 261.48&#10;  L 281.69 260.87&#10;  Q 281.18 260.82 281.11 261.32&#10;  C 280.90 262.76 282.18 262.95 282.63 264.11&#10;  Q 282.92 264.86 282.21 264.49&#10;  C 280.17 263.43 278.61 262.10 276.86 260.68&#10;  Q 276.11 260.07 275.02 260.00&#10;  Q 263.85 259.29 253.34 259.45&#10;  A 1.64 1.60 20.0 0 0 252.15 259.99&#10;  C 249.31 263.14 246.56 264.60 246.67 269.53&#10;  Q 246.68 270.08 247.21 270.25&#10;  Q 251.95 271.77 255.56 275.46&#10;  A 1.84 1.80 -22.1 0 0 256.85 275.99&#10;  Q 275.68 275.80 295.72 278.62&#10;  A 0.40 0.40 0.0 0 0 296.12 278.02&#10;  Q 292.27 271.52 293.65 264.31&#10;  L 296.57 263.60&#10;  C 294.96 264.38 293.72 265.33 293.76 267.32&#10;  Q 293.88 273.52 297.67 279.36&#10;  Q 299.59 282.32 301.96 283.25&#10;  Q 302.10 283.38 302.13 283.58&#10;  Q 302.19 283.95 301.83 283.83&#10;  Q 299.58 283.11 298.31 281.30&#10;  Q 297.48 280.10 295.94 279.90&#10;  Q 276.52 277.35 257.44 277.14&#10;  A 0.31 0.31 0.0 0 0 257.16 277.60&#10;  Q 260.58 284.00 259.05 290.49&#10;  Q 258.91 291.07 259.51 291.10&#10;  Q 274.96 291.73 291.61 292.64&#10;  Q 291.82 292.65 291.81 292.86&#10;  L 291.81 292.87&#10;  Q 291.80 292.95 291.72 292.94&#10;  Q 275.11 292.10 259.25 291.78&#10;  Q 258.61 291.77 258.38 292.36&#10;  C 253.28 305.33 235.21 306.29 229.06 293.60&#10;  Q 228.73 292.94 228.00 293.00&#10;  Q 204.95 294.79 181.87 299.40&#10;  C 179.62 299.86 177.91 301.25 175.55 301.14&#10;  C 172.77 301.02 170.38 301.61 168.27 303.52&#10;  Q 163.48 307.85 159.16 311.81&#10;  Q 156.50 314.24 154.55 316.71&#10;  Q 154.15 317.22 154.78 317.06&#10;  Q 171.61 312.73 191.20 310.50&#10;  Q 248.41 303.98 305.41 307.83&#10;  C 319.41 308.77 332.55 309.70 346.06 312.81&#10;  Q 346.85 312.99 346.26 312.43&#10;  C 337.30 304.11 328.79 295.95 319.69 288.87&#10;  Q 319.17 288.47 318.73 288.95&#10;  L 318.52 289.18&#10;  Q 318.13 289.61 317.56 289.67&#10;  Q 310.76 290.39 306.13 285.35&#10;  Q 305.04 284.18 302.81 282.56&#10;  C 302.15 281.85 300.75 279.79 300.48 278.83&#10;  Q 300.23 277.95 300.79 278.68&#10;  C 303.14 281.74 305.60 284.28 308.68 286.73&#10;  C 311.30 288.81 313.99 289.50 317.27 289.13&#10;  A 1.30 1.29 88.9 0 0 318.41 287.94&#10;  C 318.70 284.14 314.19 282.80 311.22 283.69&#10;  Q 310.96 283.76 310.92 283.49&#10;  L 310.88 283.24&#10;  Q 310.85 283.05 311.04 283.03&#10;  Q 313.93 282.62 317.04 283.65&#10;  A 1.21 1.18 -4.5 0 1 317.69 284.19&#10;  C 318.72 286.04 319.02 287.56 321.43 288.05&#10;  Q 321.34 288.13 321.31 288.26&#10;  A 0.38 0.37 28.5 0 0 321.42 288.62&#10;  Q 334.95 300.24 347.84 312.39&#10;  C 349.05 313.52 349.96 314.12 350.14 315.93&#10;  A 1.84 1.83 72.3 0 1 349.22 317.71&#10;  Q 347.39 318.74 345.56 319.32&#10;  Q 334.96 322.67 322.89 325.06&#10;  A 1.17 1.17 0.0 0 0 322.00 326.56&#10;  Q 325.04 336.18 324.34 344.14&#10;  C 323.86 349.64 321.25 356.17 318.64 361.18&#10;  Q 318.19 362.05 318.99 361.49&#10;  Q 324.25 357.76 329.33 354.64&#10;  Q 331.89 353.07 334.44 352.65&#10;  C 338.35 352.00 342.39 350.09 346.17 350.15&#10;  C 355.68 350.32 351.19 361.78 349.49 366.77&#10;  Q 343.96 383.04 337.38 397.85&#10;  Q 335.85 401.29 335.41 404.03&#10;  C 334.82 407.66 333.16 411.24 334.13 414.94&#10;  C 335.92 421.76 336.56 428.76 336.39 436.06&#10;  C 335.85 458.66 319.87 474.84 300.36 484.19&#10;  A 0.66 0.66 0.0 0 0 300.33 485.36&#10;  C 302.78 486.71 307.18 490.75 302.69 493.25&#10;  C 305.56 489.17 301.10 486.87 297.98 485.85&#10;  Q 297.48 485.69 296.98 485.86&#10;  C 293.37 487.10 289.83 488.14 286.66 490.52&#10;  Q 283.55 492.85 280.24 494.94&#10;  A 1.90 1.88 -49.0 0 1 278.48 495.07&#10;  Q 275.00 493.56 271.26 491.72&#10;  Q 269.60 490.90 268.37 491.76&#10;  Q 260.05 490.42 257.06 493.71&#10;  Q 258.86 491.09 256.04 488.96&#10;  C 249.20 483.79 236.14 484.60 228.36 486.58&#10;  Q 227.06 486.91 223.54 488.96&#10;  Q 204.68 485.59 190.83 475.92&#10;  Q 182.22 469.92 176.48 459.59&#10;  Q 167.22 442.92 170.19 423.89&#10;  Q 171.49 415.60 174.44 407.78&#10;  Q 175.00 408.03 174.87 408.50&#10;  C 169.38 427.74 170.43 447.44 182.43 463.59&#10;  C 192.15 476.67 207.46 484.80 223.30 487.85&#10;  A 2.30 2.29 36.7 0 0 224.82 487.63&#10;  L 230.01 484.93&#10;  C 238.17 482.60 252.07 482.27 258.28 489.55&#10;  Q 258.66 490.00 259.24 489.95&#10;  L 265.28 489.42&#10;  Q 266.42 489.32 265.39 488.82&#10;  C 247.46 480.05 230.42 470.26 214.65 457.93&#10;  Q 204.12 449.51 196.11 439.89&#10;  Q 185.96 427.69 180.86 410.75&#10;  Q 180.61 409.92 179.74 409.63&#10;  C 177.99 409.04 176.20 407.82 174.57 406.99&#10;  Q 149.51 383.27 148.45 348.51&#10;  C 148.34 344.84 150.54 341.29 154.69 342.58&#10;  Q 159.75 344.15 164.07 346.75&#10;  C 165.34 347.50 166.72 347.30 167.98 347.95&#10;  Q 177.73 352.99 186.98 357.77&#10;  Q 188.68 358.65 187.88 356.91&#10;  Q 181.73 343.49 180.67 327.06&#10;  L 181.74 313.65&#10;  A 0.41 0.41 0.0 0 0 181.27 313.21&#10;  C 171.82 314.63 162.20 316.00 153.28 319.09&#10;  Q 151.96 319.55 151.92 320.79&#10;  Q 151.90 321.41 152.47 321.65&#10;  Q 160.28 324.90 169.41 325.80&#10;  Q 164.31 325.74 158.01 324.46&#10;  C 155.13 323.88 147.68 322.01 152.09 317.33&#10;  Q 160.15 308.78 169.60 300.94&#10;  A 1.03 1.02 -33.3 0 0 169.86 299.70&#10;  Q 169.02 298.05 168.74 296.20&#10;  Q 168.66 295.67 168.20 295.38&#10;  Q 164.86 293.29 166.70 289.49&#10;  Q 167.44 289.38 167.88 288.99&#10;  Q 168.37 288.56 168.21 287.88&#10;  Q 167.93 286.75 166.37 286.72&#10;  Q 167.00 278.02 174.59 272.69&#10;  L 175.27 272.80&#10;  Q 171.02 275.71 168.68 280.13&#10;  C 167.84 281.72 168.03 283.38 167.14 284.92&#10;  A 0.63 0.61 51.1 0 0 167.09 285.45&#10;  Q 167.27 285.94 167.73 285.95&#10;  A 0.62 0.61 76.7 0 1 168.28 286.29&#10;  Q 168.95 287.55 168.58 289.14&#10;  Q 168.45 289.67 168.00 289.96&#10;  Q 166.92 290.67 166.62 292.01&#10;  A 1.67 1.67 0.0 0 0 167.81 293.98&#10;  Q 170.36 294.69 169.85 297.51&#10;  Q 169.56 299.16 171.23 299.21&#10;  Q 171.96 299.23 172.58 298.48&#10;  Q 173.31 297.58 173.69 298.68&#10;  Q 173.79 299.00 173.78 299.35&#10;  Q 173.75 299.96 174.34 300.14&#10;  C 177.67 301.16 180.74 298.73 183.50 297.32&#10;  Q 184.13 297.64 184.51 297.58&#10;  Q 205.96 293.66 227.61 292.16&#10;  Q 228.08 292.13 228.03 291.66&#10;  L 227.60 287.53&#10;  Q 229.48 296.85 237.35 300.09&#10;  C 246.05 303.67 255.32 299.26 258.24 290.39&#10;  C 260.03 284.97 258.29 278.05 253.92 274.70&#10;  C 245.07 267.92 234.60 270.34 228.76 279.69&#10;  Q 228.85 279.34 228.82 279.04&#10;  Q 228.78 278.54 228.27 278.59&#10;  Q 211.92 280.25 196.56 283.51&#10;  A 1.83 1.82 -88.1 0 0 195.19 284.80&#10;  Q 194.05 288.76 191.42 292.16&#10;  Q 189.50 294.64 186.83 294.63&#10;  Q 190.62 292.79 191.58 291.10&#10;  Q 196.73 281.99 197.40 271.50&#10;  Q 197.42 271.24 197.81 270.99&#10;  Q 200.75 267.26 203.62 267.12&#10;  C 207.40 266.92 211.30 267.37 214.15 264.37&#10;  Q 215.85 262.58 213.46 263.21&#10;  Q 208.94 264.40 204.28 264.98&#10;  Q 202.06 265.25 200.38 266.46&#10;  Q 198.49 267.82 196.90 269.95&#10;  L 192.26 268.88&#10;  L 191.60 268.43&#10;  Q 192.27 267.41 192.54 265.76&#10;  Q 194.82 251.31 196.06 236.72&#10;  A 1.02 1.02 0.0 0 1 196.71 235.85&#10;  Q 199.00 234.97 201.50 234.25&#10;  Q 223.25 228.03 246.44 227.28&#10;  Q 264.49 226.69 279.30 228.62&#10;  Q 288.83 229.86 299.13 232.56&#10;  Q 300.26 232.86 301.37 233.37&#10;  A 2.07 2.07 0.0 0 1 302.57 235.10&#10;  Q 303.48 247.44 306.03 258.74&#10;  Q 306.45 260.56 307.47 261.43&#10;  Z&#10;  M 197.06 239.67&#10;  Q 196.33 247.78 195.25 255.76&#10;  A 0.47 0.47 0.0 0 0 195.84 256.28&#10;  Q 198.75 255.50 201.92 255.04&#10;  C 204.39 254.67 205.34 252.93 207.15 251.60&#10;  C 209.45 249.90 214.01 248.38 216.24 251.20&#10;  Q 216.88 252.00 217.91 251.85&#10;  Q 228.58 250.30 239.88 249.48&#10;  Q 240.37 249.45 240.70 249.08&#10;  Q 246.91 242.24 253.81 248.42&#10;  Q 254.27 248.83 254.88 248.82&#10;  Q 264.47 248.58 274.34 249.36&#10;  Q 274.88 249.40 275.30 249.07&#10;  C 276.47 248.15 277.45 247.04 278.92 246.58&#10;  C 282.96 245.32 286.43 247.02 288.73 250.33&#10;  Q 289.09 250.84 289.70 250.95&#10;  L 302.77 253.15&#10;  Q 303.75 253.32 303.57 252.34&#10;  Q 302.00 243.95 301.42 235.85&#10;  A 2.12 2.11 5.2 0 0 299.84 233.96&#10;  C 266.82 225.34 231.39 226.51 198.80 236.31&#10;  C 196.82 236.90 197.21 238.03 197.06 239.67&#10;  Z&#10;  M 239.37 256.40&#10;  Q 238.50 253.74 240.05 251.01&#10;  A 0.40 0.40 0.0 0 0 239.67 250.42&#10;  Q 224.25 251.39 208.88 254.38&#10;  Q 208.48 254.45 208.16 254.68&#10;  Q 207.90 254.88 207.70 255.15&#10;  Q 207.36 255.62 206.82 255.83&#10;  Q 204.31 256.78 202.31 258.10&#10;  Q 199.80 259.75 201.60 257.35&#10;  L 202.26 256.47&#10;  Q 202.78 255.77 201.93 255.94&#10;  L 195.53 257.23&#10;  Q 195.39 257.26 195.35 257.39&#10;  Q 194.76 259.15 193.81 266.04&#10;  A 0.12 0.12 0.0 0 0 193.95 266.17&#10;  Q 216.43 261.19 238.28 259.48&#10;  Q 238.78 259.44 239.03 259.00&#10;  L 240.23 256.86&#10;  Q 241.16 255.93 241.62 254.74&#10;  Q 241.80 254.26 241.65 253.77&#10;  Q 241.27 252.59 241.97 251.57&#10;  C 244.64 247.70 248.68 248.86 252.62 249.01&#10;  Q 253.44 249.04 252.88 248.44&#10;  Q 251.12 246.56 248.77 246.29&#10;  C 241.59 245.47 240.40 250.88 239.37 256.40&#10;  Z&#10;  M 280.40 261.52&#10;  Q 279.86 259.42 278.04 258.59&#10;  Q 277.58 258.38 277.34 257.92&#10;  Q 275.63 254.62 277.47 251.76&#10;  C 280.13 247.61 283.77 250.57 287.43 250.78&#10;  Q 288.28 250.82 287.76 250.16&#10;  C 283.98 245.34 277.33 245.53 274.83 251.30&#10;  C 272.88 255.81 276.62 260.33 280.43 262.70&#10;  A 0.39 0.38 35.3 0 0 280.93 262.62&#10;  Q 281.32 262.16 280.77 261.94&#10;  A 0.64 0.63 4.0 0 1 280.40 261.52&#10;  Z&#10;  M 242.39 254.81&#10;  L 240.15 258.46&#10;  Q 239.70 259.19 240.55 259.16&#10;  Q 246.34 258.98 251.49 258.80&#10;  Q 263.44 258.38 274.58 259.14&#10;  A 0.49 0.49 0.0 0 0 275.04 258.42&#10;  Q 273.01 254.73 274.19 251.06&#10;  A 0.70 0.70 0.0 0 0 273.57 250.15&#10;  Q 260.03 249.28 245.37 250.00&#10;  C 243.61 250.08 242.02 251.70 242.56 253.48&#10;  Q 242.78 254.18 242.39 254.81&#10;  Z&#10;  M 203.27 256.62&#10;  Q 203.78 256.59 204.32 256.23&#10;  C 205.36 255.54 206.29 255.39 206.98 254.19&#10;  Q 207.33 253.58 207.96 253.27&#10;  Q 209.22 252.66 210.61 252.75&#10;  Q 213.28 252.93 215.84 252.17&#10;  Q 216.46 251.99 215.96 251.57&#10;  C 210.98 247.36 206.44 253.51 203.06 256.07&#10;  A 0.31 0.31 0.0 0 0 203.27 256.62&#10;  Z&#10;  M 280.90 260.10&#10;  Q 288.24 260.38 295.91 261.94&#10;  C 298.96 262.56 301.33 261.50 304.33 261.26&#10;  A 0.82 0.82 0.0 0 0 305.06 260.25&#10;  L 303.81 254.93&#10;  Q 303.66 254.27 302.99 254.14&#10;  Q 292.67 252.14 281.45 250.79&#10;  C 277.00 250.25 275.52 256.48 278.83 258.14&#10;  C 279.69 258.57 280.16 259.21 280.67 259.97&#10;  A 0.27 0.27 0.0 0 0 280.90 260.10&#10;  Z&#10;  M 246.14 268.40&#10;  C 246.45 264.57 248.53 262.55 251.20 260.20&#10;  Q 252.28 259.24 250.85 259.41&#10;  C 245.45 260.04 244.80 265.06 244.18 269.41&#10;  Q 244.11 269.91 244.62 269.96&#10;  L 245.47 270.03&#10;  A 0.48 0.48 0.0 0 0 246.00 269.62&#10;  Q 246.09 269.01 246.14 268.40&#10;  Z&#10;  M 197.86 273.26&#10;  C 197.85 276.00 197.22 278.95 196.26 281.45&#10;  Q 195.96 282.24 196.79 282.07&#10;  Q 212.68 278.80 229.11 277.18&#10;  A 2.39 2.38 15.8 0 0 230.78 276.25&#10;  Q 235.43 270.12 242.85 269.78&#10;  Q 243.50 269.75 243.59 269.11&#10;  C 244.04 266.13 244.54 262.70 246.84 260.49&#10;  Q 247.66 259.72 246.53 259.76&#10;  Q 232.85 260.34 216.84 262.74&#10;  Q 215.90 262.88 215.34 263.69&#10;  Q 212.75 267.36 208.54 267.46&#10;  C 204.49 267.56 202.03 267.52 198.89 270.81&#10;  Q 197.87 271.88 197.86 273.26&#10;  Z&#10;  M 195.45 269.00&#10;  C 195.94 269.18 196.52 269.05 196.87 268.66&#10;  Q 197.84 267.59 199.04 266.69&#10;  Q 200.42 265.67 198.75 266.06&#10;  L 193.58 267.27&#10;  A 0.53 0.53 0.0 0 0 193.34 268.17&#10;  C 194.03 268.80 194.67 268.71 195.45 269.00&#10;  Z&#10;  M 250.21 308.04&#10;  Q 246.73 307.62 245.79 308.49&#10;  C 240.01 306.49 237.14 315.88 237.31 319.72&#10;  C 237.87 331.79 251.70 337.77 261.31 331.94&#10;  C 270.21 326.54 270.37 315.24 262.94 308.52&#10;  Q 262.17 307.82 261.00 307.80&#10;  Q 254.77 307.71 250.21 308.04&#10;  Z&#10;  M 274.18 315.71&#10;  Q 279.25 314.92 284.65 315.74&#10;  L 289.58 316.94&#10;  Q 290.14 317.08 290.24 316.51&#10;  Q 290.93 312.39 293.50 309.22&#10;  Q 293.93 308.67 293.24 308.64&#10;  L 284.33 308.26&#10;  L 273.07 307.96&#10;  L 265.67 307.92&#10;  Q 264.93 307.92 265.44 308.45&#10;  Q 268.57 311.73 269.53 315.86&#10;  Q 269.67 316.45 270.27 316.35&#10;  L 274.18 315.71&#10;  Z&#10;  M 205.44 310.46&#10;  L 184.94 312.82&#10;  Q 184.35 312.89 184.25 313.48&#10;  Q 180.49 336.73 191.42 358.81&#10;  C 192.57 361.14 195.75 362.13 197.89 363.35&#10;  C 200.30 364.72 203.12 363.38 205.80 364.46&#10;  C 207.68 365.22 209.65 364.18 211.79 364.69&#10;  C 221.30 366.94 227.74 370.91 238.63 376.35&#10;  Q 246.58 380.69 255.15 385.12&#10;  C 266.47 390.98 283.55 393.78 294.10 385.39&#10;  Q 301.77 379.28 308.24 373.14&#10;  C 310.10 371.38 311.44 369.32 313.13 367.42&#10;  C 317.76 362.25 321.20 353.26 322.31 347.51&#10;  Q 324.46 336.40 318.32 323.22&#10;  Q 317.89 322.30 317.70 323.30&#10;  C 315.23 336.10 300.01 340.52 292.68 328.86&#10;  Q 292.37 328.37 292.06 328.86&#10;  C 288.52 334.53 278.15 333.58 272.81 331.84&#10;  Q 269.20 330.67 268.29 328.03&#10;  Q 268.06 327.37 267.70 327.97&#10;  C 263.61 334.79 254.66 337.72 247.31 334.99&#10;  Q 236.87 331.12 235.57 320.35&#10;  Q 235.48 319.65 234.77 319.69&#10;  L 203.89 321.54&#10;  L 193.44 322.40&#10;  A 4.07 4.06 -80.1 0 0 190.06 324.78&#10;  L 187.15 331.23&#10;  A 1.41 1.40 26.0 0 1 185.22 331.89&#10;  L 184.67 331.60&#10;  Q 183.41 330.93 183.95 329.60&#10;  C 185.95 324.64 187.63 319.62 192.98 318.77&#10;  Q 193.09 319.20 193.43 319.50&#10;  Q 193.74 319.77 194.15 319.79&#10;  C 204.04 320.06 214.04 319.19 224.25 318.35&#10;  Q 225.01 318.29 224.43 317.79&#10;  Q 224.03 317.44 223.50 317.51&#10;  Q 217.75 318.28 212.33 317.43&#10;  L 235.52 315.03&#10;  Q 236.09 314.97 236.28 314.43&#10;  Q 237.47 311.04 239.65 308.66&#10;  A 0.27 0.27 0.0 0 0 239.44 308.21&#10;  L 205.44 310.46&#10;  Z&#10;  M 302.43 309.32&#10;  Q 297.82 307.35 295.62 312.17&#10;  Q 295.19 310.97 296.19 309.74&#10;  Q 297.63 307.97 295.70 309.20&#10;  Q 294.33 310.08 293.37 312.20&#10;  Q 290.11 319.39 293.00 326.13&#10;  C 297.30 336.15 309.97 336.87 314.76 326.99&#10;  Q 318.59 319.08 313.79 311.11&#10;  C 313.11 309.97 311.96 309.69 310.75 309.56&#10;  Q 305.69 309.03 302.43 309.32&#10;  Z&#10;  M 323.35 324.13&#10;  Q 334.95 321.93 346.74 317.86&#10;  Q 347.72 317.53 348.47 316.87&#10;  A 0.96 0.96 0.0 0 0 348.20 315.25&#10;  Q 343.84 313.55 339.09 312.70&#10;  Q 328.53 310.79 317.86 310.12&#10;  A 0.55 0.55 0.0 0 0 317.27 310.66&#10;  Q 317.16 317.80 321.08 324.27&#10;  Q 321.34 324.71 321.83 324.54&#10;  Q 322.55 324.28 323.35 324.13&#10;  Z&#10;  M 274.35 318.89&#10;  L 270.67 319.60&#10;  Q 270.18 319.70 270.14 320.20&#10;  Q 269.87 323.64 268.39 326.82&#10;  Q 268.34 326.93 268.41 326.84&#10;  Q 270.76 324.09 274.26 323.37&#10;  Q 278.98 322.49 283.35 323.62&#10;  C 279.18 323.82 272.01 324.24 269.01 327.42&#10;  Q 268.63 327.82 268.90 328.30&#10;  Q 269.92 330.15 271.81 330.75&#10;  C 276.78 332.33 285.93 332.53 290.59 328.72&#10;  A 1.07 1.06 -43.7 0 0 290.63 327.10&#10;  L 288.19 324.95&#10;  Q 288.14 324.81 288.51 324.61&#10;  L 290.45 325.70&#10;  Q 291.21 326.12 290.92 325.30&#10;  Q 289.95 322.50 290.03 319.68&#10;  Q 290.05 319.05 289.42 318.97&#10;  L 285.19 318.41&#10;  Q 279.71 317.93 274.35 318.89&#10;  Z&#10;  M 153.33 343.42&#10;  C 149.06 342.47 149.27 349.40 149.60 351.64&#10;  Q 152.55 371.89 164.59 389.78&#10;  C 168.72 395.93 172.73 402.10 179.05 406.20&#10;  Q 179.59 406.55 179.46 405.92&#10;  C 175.81 388.12 172.68 370.42 167.94 353.01&#10;  A 3.71 3.68 10.1 0 0 166.49 350.95&#10;  Q 162.02 347.87 157.50 345.10&#10;  Q 155.59 343.93 153.33 343.42&#10;  Z&#10;  M 178.58 390.79&#10;  L 179.46 394.05&#10;  Q 179.29 395.23 180.19 397.75&#10;  Q 185.05 428.54 207.87 449.21&#10;  L 217.09 457.30&#10;  Q 232.69 469.74 251.43 480.09&#10;  L 257.10 483.34&#10;  L 278.49 494.25&#10;  A 1.52 1.51 -47.2 0 0 279.98 494.19&#10;  Q 289.35 488.48 297.32 480.50&#10;  L 303.70 473.23&#10;  Q 307.10 469.03 309.33 465.56&#10;  Q 322.08 445.68 328.55 423.38&#10;  L 332.81 407.30&#10;  Q 332.84 407.26 332.87 407.22&#10;  Q 332.90 407.18 332.92 407.12&#10;  Q 337.67 387.74 337.58 368.26&#10;  Q 337.55 360.81 335.25 354.38&#10;  A 1.23 1.22 -21.6 0 0 333.60 353.67&#10;  Q 327.18 356.48 321.66 360.87&#10;  Q 318.18 362.60 314.58 366.85&#10;  Q 313.56 367.41 312.41 369.64&#10;  L 299.17 382.89&#10;  L 296.47 385.39&#10;  Q 294.98 386.50 293.49 387.62&#10;  C 289.54 390.58 284.71 391.96 279.79 392.25&#10;  L 277.25 392.32&#10;  Q 267.29 392.17 257.76 387.79&#10;  Q 253.62 385.89 249.44 383.46&#10;  L 245.96 381.57&#10;  L 218.85 367.44&#10;  C 215.97 366.22 213.97 366.10 211.52 365.18&#10;  Q 210.27 364.71 208.87 365.32&#10;  Q 208.11 365.64 208.92 365.79&#10;  C 210.12 366.01 211.13 366.04 212.27 366.61&#10;  Q 215.27 368.10 218.42 369.31&#10;  L 243.72 384.89&#10;  L 248.35 387.65&#10;  C 256.34 392.81 266.35 396.58 276.06 396.86&#10;  L 280.63 396.50&#10;  Q 290.64 395.30 298.43 388.82&#10;  L 302.18 385.42&#10;  Q 307.59 379.34 311.64 372.30&#10;  Q 311.74 372.11 311.93 372.22&#10;  L 311.93 372.22&#10;  Q 312.12 372.33 312.01 372.51&#10;  Q 307.99 379.60 302.61 385.73&#10;  L 298.52 389.43&#10;  Q 290.58 395.92 280.75 397.22&#10;  L 277.91 397.61&#10;  Q 266.78 397.60 256.42 392.88&#10;  Q 252.49 391.10 248.22 388.56&#10;  L 243.65 385.78&#10;  Q 231.43 377.26 218.08 370.10&#10;  L 212.36 367.60&#10;  Q 207.97 365.86 203.36 364.99&#10;  Q 199.95 364.34 202.94 366.10&#10;  Q 204.90 367.25 208.57 369.08&#10;  Q 208.78 369.18 208.67 369.40&#10;  L 208.67 369.41&#10;  Q 208.56 369.62 208.35 369.51&#10;  Q 200.99 365.84 193.58 362.24&#10;  L 169.47 350.16&#10;  Q 168.29 349.57 168.89 350.74&#10;  Q 169.44 351.84 169.94 353.55&#10;  Q 175.20 371.95 178.58 390.79&#10;  Z&#10;  M 341.61 386.32&#10;  Q 346.20 375.26 349.38 364.54&#10;  C 350.54 360.63 352.56 351.03 344.99 352.37&#10;  Q 341.41 353.00 337.50 354.25&#10;  A 0.69 0.68 -16.5 0 0 337.04 355.09&#10;  C 340.53 367.83 339.22 381.40 337.33 394.18&#10;  Q 337.18 395.24 337.59 394.25&#10;  C 337.90 393.50 338.45 393.36 338.79 392.65&#10;  Q 340.27 389.54 341.61 386.32&#10;  Z&#10;  M 332.08 418.67&#10;  C 325.50 441.12 315.22 462.25 299.68 479.26&#10;  Q 298.70 480.33 297.52 481.17&#10;  Q 297.38 481.27 297.47 481.41&#10;  L 297.61 481.64&#10;  Q 297.68 481.74 297.80 481.69&#10;  C 314.70 473.94 329.25 460.02 332.73 441.48&#10;  C 334.11 434.08 333.67 425.69 332.82 418.11&#10;  Q 332.76 417.64 332.46 417.99&#10;  Q 332.19 418.30 332.08 418.67&#10;  Z"/>
<path fill="#a78762" d="&#10;  M 197.06 239.67&#10;  C 197.21 238.03 196.82 236.90 198.80 236.31&#10;  C 231.39 226.51 266.82 225.34 299.84 233.96&#10;  A 2.12 2.11 5.2 0 1 301.42 235.85&#10;  Q 302.00 243.95 303.57 252.34&#10;  Q 303.75 253.32 302.77 253.15&#10;  L 289.70 250.95&#10;  Q 289.09 250.84 288.73 250.33&#10;  C 286.43 247.02 282.96 245.32 278.92 246.58&#10;  C 277.45 247.04 276.47 248.15 275.30 249.07&#10;  Q 274.88 249.40 274.34 249.36&#10;  Q 264.47 248.58 254.88 248.82&#10;  Q 254.27 248.83 253.81 248.42&#10;  Q 246.91 242.24 240.70 249.08&#10;  Q 240.37 249.45 239.88 249.48&#10;  Q 228.58 250.30 217.91 251.85&#10;  Q 216.88 252.00 216.24 251.20&#10;  C 214.01 248.38 209.45 249.90 207.15 251.60&#10;  C 205.34 252.93 204.39 254.67 201.92 255.04&#10;  Q 198.75 255.50 195.84 256.28&#10;  A 0.47 0.47 0.0 0 1 195.25 255.76&#10;  Q 196.33 247.78 197.06 239.67&#10;  Z"/>
<path fill="#a78762" d="&#10;  M 240.23 256.86&#10;  Q 239.74 256.38 239.37 256.40&#10;  C 240.40 250.88 241.59 245.47 248.77 246.29&#10;  Q 251.12 246.56 252.88 248.44&#10;  Q 253.44 249.04 252.62 249.01&#10;  C 248.68 248.86 244.64 247.70 241.97 251.57&#10;  Q 241.27 252.59 241.65 253.77&#10;  Q 241.80 254.26 241.62 254.74&#10;  Q 241.16 255.93 240.23 256.86&#10;  Z"/>
<path fill="#a78762" d="&#10;  M 280.77 261.94&#10;  Q 281.32 262.16 280.93 262.62&#10;  A 0.39 0.38 35.3 0 1 280.43 262.70&#10;  C 276.62 260.33 272.88 255.81 274.83 251.30&#10;  C 277.33 245.53 283.98 245.34 287.76 250.16&#10;  Q 288.28 250.82 287.43 250.78&#10;  C 283.77 250.57 280.13 247.61 277.47 251.76&#10;  Q 275.63 254.62 277.34 257.92&#10;  Q 277.58 258.38 278.04 258.59&#10;  Q 279.86 259.42 280.40 261.52&#10;  A 0.64 0.63 4.0 0 0 280.77 261.94&#10;  Z"/>
<path fill="#8e5b40" d="&#10;  M 242.56 253.48&#10;  C 242.02 251.70 243.61 250.08 245.37 250.00&#10;  Q 260.03 249.28 273.57 250.15&#10;  A 0.70 0.70 0.0 0 1 274.19 251.06&#10;  Q 273.01 254.73 275.04 258.42&#10;  A 0.49 0.49 0.0 0 1 274.58 259.14&#10;  Q 263.44 258.38 251.49 258.80&#10;  Q 246.34 258.98 240.55 259.16&#10;  Q 239.70 259.19 240.15 258.46&#10;  L 242.39 254.81&#10;  Q 242.78 254.18 242.56 253.48&#10;  Z"/>
<path fill="#a78762" d="&#10;  M 203.06 256.07&#10;  C 206.44 253.51 210.98 247.36 215.96 251.57&#10;  Q 216.46 251.99 215.84 252.17&#10;  Q 213.28 252.93 210.61 252.75&#10;  Q 209.22 252.66 207.96 253.27&#10;  Q 207.33 253.58 206.98 254.19&#10;  C 206.29 255.39 205.36 255.54 204.32 256.23&#10;  Q 203.78 256.59 203.27 256.62&#10;  A 0.31 0.31 0.0 0 1 203.06 256.07&#10;  Z"/>
<path fill="#8e5b40" d="&#10;  M 239.37 256.40&#10;  Q 239.74 256.38 240.23 256.86&#10;  L 239.03 259.00&#10;  Q 238.78 259.44 238.28 259.48&#10;  Q 216.43 261.19 193.95 266.17&#10;  A 0.12 0.12 0.0 0 1 193.81 266.04&#10;  Q 194.76 259.15 195.35 257.39&#10;  Q 195.39 257.26 195.53 257.23&#10;  L 201.93 255.94&#10;  Q 202.78 255.77 202.26 256.47&#10;  L 201.60 257.35&#10;  Q 199.80 259.75 202.31 258.10&#10;  Q 204.31 256.78 206.82 255.83&#10;  Q 207.36 255.62 207.70 255.15&#10;  Q 207.90 254.88 208.16 254.68&#10;  Q 208.48 254.45 208.88 254.38&#10;  Q 224.25 251.39 239.67 250.42&#10;  A 0.40 0.40 0.0 0 1 240.05 251.01&#10;  Q 238.50 253.74 239.37 256.40&#10;  Z"/>
<path fill="#8e5b40" d="&#10;  M 280.90 260.10&#10;  A 0.27 0.27 0.0 0 1 280.67 259.97&#10;  C 280.16 259.21 279.69 258.57 278.83 258.14&#10;  C 275.52 256.48 277.00 250.25 281.45 250.79&#10;  Q 292.67 252.14 302.99 254.14&#10;  Q 303.66 254.27 303.81 254.93&#10;  L 305.06 260.25&#10;  A 0.82 0.82 0.0 0 1 304.33 261.26&#10;  C 301.33 261.50 298.96 262.56 295.91 261.94&#10;  Q 288.24 260.38 280.90 260.10&#10;  Z"/>
<path fill="#a78762" d="&#10;  M 246.14 268.40&#10;  Q 246.09 269.01 246.00 269.62&#10;  A 0.48 0.48 0.0 0 1 245.47 270.03&#10;  L 244.62 269.96&#10;  Q 244.11 269.91 244.18 269.41&#10;  C 244.80 265.06 245.45 260.04 250.85 259.41&#10;  Q 252.28 259.24 251.20 260.20&#10;  C 248.53 262.55 246.45 264.57 246.14 268.40&#10;  Z"/>
<path fill="#a78762" d="&#10;  M 293.84 263.99&#10;  Q 293.75 264.15 293.65 264.31&#10;  Q 292.27 271.52 296.12 278.02&#10;  A 0.40 0.40 0.0 0 1 295.72 278.62&#10;  Q 275.68 275.80 256.85 275.99&#10;  A 1.84 1.80 -22.1 0 1 255.56 275.46&#10;  Q 251.95 271.77 247.21 270.25&#10;  Q 246.68 270.08 246.67 269.53&#10;  C 246.56 264.60 249.31 263.14 252.15 259.99&#10;  A 1.64 1.60 20.0 0 1 253.34 259.45&#10;  Q 263.85 259.29 275.02 260.00&#10;  Q 276.11 260.07 276.86 260.68&#10;  C 278.61 262.10 280.17 263.43 282.21 264.49&#10;  Q 282.92 264.86 282.63 264.11&#10;  C 282.18 262.95 280.90 262.76 281.11 261.32&#10;  Q 281.18 260.82 281.69 260.87&#10;  L 287.87 261.48&#10;  A 1.23 1.22 76.0 0 1 288.76 262.02&#10;  Q 290.34 264.46 292.55 266.21&#10;  Q 292.60 266.25 292.64 266.21&#10;  L 292.81 266.01&#10;  Q 292.93 265.87 292.80 265.73&#10;  L 289.49 262.24&#10;  Q 288.81 261.52 289.77 261.71&#10;  L 291.30 262.01&#10;  A 1.88 1.85 78.3 0 1 292.47 262.79&#10;  Q 292.90 263.42 293.84 263.99&#10;  Z"/>
<path fill="#a78762" d="&#10;  M 196.26 281.45&#10;  C 197.22 278.95 197.85 276.00 197.86 273.26&#10;  Q 197.87 271.88 198.89 270.81&#10;  C 202.03 267.52 204.49 267.56 208.54 267.46&#10;  Q 212.75 267.36 215.34 263.69&#10;  Q 215.90 262.88 216.84 262.74&#10;  Q 232.85 260.34 246.53 259.76&#10;  Q 247.66 259.72 246.84 260.49&#10;  C 244.54 262.70 244.04 266.13 243.59 269.11&#10;  Q 243.50 269.75 242.85 269.78&#10;  Q 235.43 270.12 230.78 276.25&#10;  A 2.39 2.38 15.8 0 1 229.11 277.18&#10;  Q 212.68 278.80 196.79 282.07&#10;  Q 195.96 282.24 196.26 281.45&#10;  Z"/>
<path fill="#f17e51" d="&#10;  M 307.47 261.43&#10;  Q 307.08 261.19 307.95 261.32&#10;  Q 307.83 261.44 307.91 261.56&#10;  Q 307.97 261.67 308.09 261.67&#10;  Q 313.79 261.70 318.87 264.77&#10;  Q 322.41 267.46 324.46 272.36&#10;  Q 324.76 273.84 322.87 273.38&#10;  A 1.58 1.57 86.7 0 1 321.77 272.39&#10;  Q 321.39 271.34 320.85 269.80&#10;  Q 320.79 269.64 320.62 269.69&#10;  L 320.62 269.69&#10;  Q 320.54 269.72 320.55 269.80&#10;  Q 320.88 271.49 321.27 273.03&#10;  A 1.17 1.16 -2.6 0 0 322.22 273.89&#10;  C 325.18 274.34 328.87 276.56 327.83 280.06&#10;  Q 327.69 280.53 327.28 280.81&#10;  L 324.03 283.00&#10;  Q 324.66 285.14 324.36 286.96&#10;  Q 324.28 287.44 323.81 287.54&#10;  L 321.43 288.05&#10;  C 319.02 287.56 318.72 286.04 317.69 284.19&#10;  A 1.21 1.18 -4.5 0 0 317.04 283.65&#10;  Q 313.93 282.62 311.04 283.03&#10;  Q 310.85 283.05 310.88 283.24&#10;  L 310.92 283.49&#10;  Q 310.96 283.76 311.22 283.69&#10;  C 314.19 282.80 318.70 284.14 318.41 287.94&#10;  A 1.30 1.29 88.9 0 1 317.27 289.13&#10;  C 313.99 289.50 311.30 288.81 308.68 286.73&#10;  C 305.60 284.28 303.14 281.74 300.79 278.68&#10;  Q 300.23 277.95 300.48 278.83&#10;  C 300.75 279.79 302.15 281.85 302.81 282.56&#10;  Q 302.23 282.90 301.96 283.25&#10;  Q 299.59 282.32 297.67 279.36&#10;  Q 293.88 273.52 293.76 267.32&#10;  C 293.72 265.33 294.96 264.38 296.57 263.60&#10;  Q 297.14 263.94 297.91 263.15&#10;  L 307.47 261.43&#10;  Z&#10;  M 300.6925 266.2936&#10;  A 1.22 1.22 0.0 0 0 300.3308 264.6066&#10;  L 299.9950 264.3893&#10;  A 1.22 1.22 0.0 0 0 298.3080 264.7510&#10;  L 297.5475 265.9264&#10;  A 1.22 1.22 0.0 0 0 297.9092 267.6134&#10;  L 298.2450 267.8307&#10;  A 1.22 1.22 0.0 0 0 299.9320 267.4690&#10;  L 300.6925 266.2936&#10;  Z&#10;  M 305.39 266.96&#10;  Q 305.27 266.86 305.16 266.97&#10;  Q 302.98 269.24 302.38 272.32&#10;  Q 302.35 272.51 302.54 272.56&#10;  L 302.55 272.56&#10;  Q 302.76 272.62 302.83 272.41&#10;  Q 303.70 269.61 305.41 267.12&#10;  Q 305.47 267.03 305.39 266.97&#10;  L 305.39 266.96&#10;  Z&#10;  M 305.72 273.92&#10;  Q 306.81 271.31 308.31 269.07&#10;  Q 309.29 267.62 308.07 268.87&#10;  Q 305.96 271.03 305.46 273.84&#10;  Q 305.24 275.07 305.72 273.92&#10;  Z&#10;  M 309.03 276.99&#10;  Q 310.51 273.58 312.48 270.40&#10;  Q 312.53 270.32 312.45 270.26&#10;  L 312.45 270.25&#10;  Q 312.32 270.16 312.23 270.28&#10;  Q 309.78 273.19 308.77 276.88&#10;  Q 308.74 277.01 308.87 277.06&#10;  L 308.88 277.06&#10;  Q 308.98 277.10 309.03 276.99&#10;  Z&#10;  M 320.68 286.85&#10;  Q 321.76 288.32 321.53 286.54&#10;  Q 321.49 286.22 321.12 286.15&#10;  Q 320.52 286.02 320.23 285.47&#10;  L 318.78 282.69&#10;  Q 318.63 282.42 318.37 282.57&#10;  L 318.09 282.72&#10;  Q 317.87 282.84 318.01 283.05&#10;  Q 319.44 285.17 320.68 286.85&#10;  Z"/>
<path fill="#010101" d="&#10;  M 307.95 261.32&#10;  Q 313.47 261.18 318.24 263.76&#10;  Q 318.93 264.14 318.87 264.77&#10;  Q 313.79 261.70 308.09 261.67&#10;  Q 307.97 261.67 307.91 261.56&#10;  Q 307.83 261.44 307.95 261.32&#10;  Z"/>
<path fill="#8e5b40" d="&#10;  M 297.91 263.15&#10;  Q 297.14 263.94 296.57 263.60&#10;  L 293.65 264.31&#10;  Q 293.75 264.15 293.84 263.99&#10;  L 293.40 262.68&#10;  Q 293.20 262.09 293.81 262.23&#10;  L 297.91 263.15&#10;  Z"/>
<path fill="#a78762" d="&#10;  M 197.81 270.99&#10;  Q 197.38 270.23 196.90 269.95&#10;  Q 198.49 267.82 200.38 266.46&#10;  Q 202.06 265.25 204.28 264.98&#10;  Q 208.94 264.40 213.46 263.21&#10;  Q 215.85 262.58 214.15 264.37&#10;  C 211.30 267.37 207.40 266.92 203.62 267.12&#10;  Q 200.75 267.26 197.81 270.99&#10;  Z"/>
<rect fill="#8e5b40" x="-1.42" y="-1.92" transform="translate(299.12,266.11) rotate(32.9)" width="2.84" height="3.84" rx="1.22"/>
<path fill="#a78762" d="&#10;  M 195.45 269.00&#10;  C 194.67 268.71 194.03 268.80 193.34 268.17&#10;  A 0.53 0.53 0.0 0 1 193.58 267.27&#10;  L 198.75 266.06&#10;  Q 200.42 265.67 199.04 266.69&#10;  Q 197.84 267.59 196.87 268.66&#10;  C 196.52 269.05 195.94 269.18 195.45 269.00&#10;  Z"/>
<path fill="#010101" d="&#10;  M 305.41 267.12&#10;  Q 303.70 269.61 302.83 272.41&#10;  Q 302.76 272.62 302.55 272.56&#10;  L 302.54 272.56&#10;  Q 302.35 272.51 302.38 272.32&#10;  Q 302.98 269.24 305.16 266.97&#10;  Q 305.27 266.86 305.39 266.96&#10;  L 305.39 266.97&#10;  Q 305.47 267.03 305.41 267.12&#10;  Z"/>
<path fill="#010101" d="&#10;  M 305.46 273.84&#10;  Q 305.96 271.03 308.07 268.87&#10;  Q 309.29 267.62 308.31 269.07&#10;  Q 306.81 271.31 305.72 273.92&#10;  Q 305.24 275.07 305.46 273.84&#10;  Z"/>
<path fill="#414142" d="&#10;  M 191.60 268.43&#10;  L 192.26 268.88&#10;  Q 191.70 269.45 191.00 269.44&#10;  Q 182.64 269.33 175.27 272.80&#10;  L 174.59 272.69&#10;  Q 176.16 271.44 177.60 270.86&#10;  Q 184.08 268.24 191.60 268.43&#10;  Z"/>
<path fill="#6290ca" d="&#10;  M 192.26 268.88&#10;  L 196.90 269.95&#10;  Q 197.38 270.23 197.81 270.99&#10;  Q 197.42 271.24 197.40 271.50&#10;  Q 196.73 281.99 191.58 291.10&#10;  Q 190.62 292.79 186.83 294.63&#10;  Q 186.71 294.91 186.14 295.32&#10;  Q 186.14 294.57 186.73 293.96&#10;  A 0.28 0.28 0.0 0 0 186.74 293.59&#10;  L 186.56 293.38&#10;  Q 186.46 293.26 186.33 293.36&#10;  Q 184.24 294.93 183.50 297.32&#10;  C 180.74 298.73 177.67 301.16 174.34 300.14&#10;  Q 173.75 299.96 173.78 299.35&#10;  Q 173.79 299.00 173.69 298.68&#10;  Q 173.31 297.58 172.58 298.48&#10;  Q 171.96 299.23 171.23 299.21&#10;  Q 169.56 299.16 169.85 297.51&#10;  Q 170.36 294.69 167.81 293.98&#10;  A 1.67 1.67 0.0 0 1 166.62 292.01&#10;  Q 166.92 290.67 168.00 289.96&#10;  Q 168.45 289.67 168.58 289.14&#10;  Q 168.95 287.55 168.28 286.29&#10;  A 0.62 0.61 76.7 0 0 167.73 285.95&#10;  Q 167.27 285.94 167.09 285.45&#10;  A 0.63 0.61 51.1 0 1 167.14 284.92&#10;  C 168.03 283.38 167.84 281.72 168.68 280.13&#10;  Q 171.02 275.71 175.27 272.80&#10;  Q 182.64 269.33 191.00 269.44&#10;  Q 191.70 269.45 192.26 268.88&#10;  Z&#10;  M 179.55 278.65&#10;  Q 180.65 282.46 183.62 284.86&#10;  Q 183.72 284.95 183.81 284.85&#10;  L 183.82 284.85&#10;  Q 183.94 284.72 183.82 284.60&#10;  Q 181.23 281.96 179.70 278.44&#10;  Q 179.67 278.36 179.59 278.36&#10;  Q 179.54 278.35 179.49 278.34&#10;  Q 179.32 278.32 179.44 278.44&#10;  Q 179.52 278.53 179.55 278.65&#10;  Z&#10;  M 177.30 282.12&#10;  Q 178.24 285.27 180.95 287.36&#10;  Q 181.00 287.40 181.06 287.38&#10;  Q 181.24 287.33 181.11 287.19&#10;  Q 178.89 284.91 177.59 282.02&#10;  Q 177.53 281.88 177.39 281.93&#10;  L 177.39 281.94&#10;  Q 177.26 281.99 177.30 282.12&#10;  Z&#10;  M 178.0490 289.0132&#10;  A 2.80 0.31 52.9 0 0 176.6073 286.5930&#10;  A 2.80 0.31 52.9 0 0 174.6710 284.5468&#10;  A 2.80 0.31 52.9 0 0 176.1127 286.9670&#10;  A 2.80 0.31 52.9 0 0 178.0490 289.0132&#10;  Z"/>
<path fill="#010101" d="&#10;  M 324.46 272.36&#10;  L 324.90 273.53&#10;  Q 325.07 273.99 325.50 274.24&#10;  C 327.82 275.60 329.99 279.58 327.25 281.74&#10;  Q 325.72 282.95 324.03 283.00&#10;  L 327.28 280.81&#10;  Q 327.69 280.53 327.83 280.06&#10;  C 328.87 276.56 325.18 274.34 322.22 273.89&#10;  A 1.17 1.16 -2.6 0 1 321.27 273.03&#10;  Q 320.88 271.49 320.55 269.80&#10;  Q 320.54 269.72 320.62 269.69&#10;  L 320.62 269.69&#10;  Q 320.79 269.64 320.85 269.80&#10;  Q 321.39 271.34 321.77 272.39&#10;  A 1.58 1.57 86.7 0 0 322.87 273.38&#10;  Q 324.76 273.84 324.46 272.36&#10;  Z"/>
<path fill="#010101" d="&#10;  M 309.03 276.99&#10;  Q 308.98 277.10 308.88 277.06&#10;  L 308.87 277.06&#10;  Q 308.74 277.01 308.77 276.88&#10;  Q 309.78 273.19 312.23 270.28&#10;  Q 312.32 270.16 312.45 270.25&#10;  L 312.45 270.26&#10;  Q 312.53 270.32 312.48 270.40&#10;  Q 310.51 273.58 309.03 276.99&#10;  Z"/>
<path fill="#fcaf46" d="&#10;  M 227.60 287.53&#10;  Q 227.47 283.84 229.25 281.76&#10;  C 237.74 278.20 249.62 281.67 256.74 286.81&#10;  Q 256.92 286.94 257.06 286.76&#10;  L 257.06 286.75&#10;  Q 257.20 286.58 257.03 286.43&#10;  Q 247.32 278.62 234.74 279.66&#10;  Q 231.86 279.90 229.47 281.36&#10;  Q 228.43 281.02 228.76 279.69&#10;  C 234.60 270.34 245.07 267.92 253.92 274.70&#10;  C 258.29 278.05 260.03 284.97 258.24 290.39&#10;  C 255.32 299.26 246.05 303.67 237.35 300.09&#10;  Q 229.48 296.85 227.60 287.53&#10;  Z"/>
<path fill="#a78762" d="&#10;  M 301.96 283.25&#10;  Q 302.23 282.90 302.81 282.56&#10;  Q 305.04 284.18 306.13 285.35&#10;  Q 310.76 290.39 317.56 289.67&#10;  Q 318.13 289.61 318.52 289.18&#10;  L 318.73 288.95&#10;  Q 319.17 288.47 319.69 288.87&#10;  C 328.79 295.95 337.30 304.11 346.26 312.43&#10;  Q 346.85 312.99 346.06 312.81&#10;  C 332.55 309.70 319.41 308.77 305.41 307.83&#10;  Q 248.41 303.98 191.20 310.50&#10;  Q 171.61 312.73 154.78 317.06&#10;  Q 154.15 317.22 154.55 316.71&#10;  Q 156.50 314.24 159.16 311.81&#10;  Q 163.48 307.85 168.27 303.52&#10;  C 170.38 301.61 172.77 301.02 175.55 301.14&#10;  C 177.91 301.25 179.62 299.86 181.87 299.40&#10;  Q 204.95 294.79 228.00 293.00&#10;  Q 228.73 292.94 229.06 293.60&#10;  C 235.21 306.29 253.28 305.33 258.38 292.36&#10;  Q 258.61 291.77 259.25 291.78&#10;  Q 275.11 292.10 291.72 292.94&#10;  Q 291.80 292.95 291.81 292.87&#10;  L 291.81 292.86&#10;  Q 291.82 292.65 291.61 292.64&#10;  Q 274.96 291.73 259.51 291.10&#10;  Q 258.91 291.07 259.05 290.49&#10;  Q 260.58 284.00 257.16 277.60&#10;  A 0.31 0.31 0.0 0 1 257.44 277.14&#10;  Q 276.52 277.35 295.94 279.90&#10;  Q 297.48 280.10 298.31 281.30&#10;  Q 299.58 283.11 301.83 283.83&#10;  Q 302.19 283.95 302.13 283.58&#10;  Q 302.10 283.38 301.96 283.25&#10;  Z"/>
<path fill="#010101" d="&#10;  M 179.55 278.65&#10;  Q 179.52 278.53 179.44 278.44&#10;  Q 179.32 278.32 179.49 278.34&#10;  Q 179.54 278.35 179.59 278.36&#10;  Q 179.67 278.36 179.70 278.44&#10;  Q 181.23 281.96 183.82 284.60&#10;  Q 183.94 284.72 183.82 284.85&#10;  L 183.81 284.85&#10;  Q 183.72 284.95 183.62 284.86&#10;  Q 180.65 282.46 179.55 278.65&#10;  Z"/>
<path fill="#a78762" d="&#10;  M 228.76 279.69&#10;  Q 228.43 281.02 229.47 281.36&#10;  Q 229.25 281.40 229.25 281.76&#10;  Q 227.47 283.84 227.60 287.53&#10;  L 228.03 291.66&#10;  Q 228.08 292.13 227.61 292.16&#10;  Q 205.96 293.66 184.51 297.58&#10;  Q 184.78 296.41 186.14 295.32&#10;  Q 186.71 294.91 186.83 294.63&#10;  Q 189.50 294.64 191.42 292.16&#10;  Q 194.05 288.76 195.19 284.80&#10;  A 1.83 1.82 -88.1 0 1 196.56 283.51&#10;  Q 211.92 280.25 228.27 278.59&#10;  Q 228.78 278.54 228.82 279.04&#10;  Q 228.85 279.34 228.76 279.69&#10;  Z"/>
<path fill="#010101" d="&#10;  M 229.25 281.76&#10;  Q 229.25 281.40 229.47 281.36&#10;  Q 231.86 279.90 234.74 279.66&#10;  Q 247.32 278.62 257.03 286.43&#10;  Q 257.20 286.58 257.06 286.75&#10;  L 257.06 286.76&#10;  Q 256.92 286.94 256.74 286.81&#10;  C 249.62 281.67 237.74 278.20 229.25 281.76&#10;  Z"/>
<path fill="#010101" d="&#10;  M 177.30 282.12&#10;  Q 177.26 281.99 177.39 281.94&#10;  L 177.39 281.93&#10;  Q 177.53 281.88 177.59 282.02&#10;  Q 178.89 284.91 181.11 287.19&#10;  Q 181.24 287.33 181.06 287.38&#10;  Q 181.00 287.40 180.95 287.36&#10;  Q 178.24 285.27 177.30 282.12&#10;  Z"/>
<path fill="#010101" d="&#10;  M 320.68 286.85&#10;  Q 319.44 285.17 318.01 283.05&#10;  Q 317.87 282.84 318.09 282.72&#10;  L 318.37 282.57&#10;  Q 318.63 282.42 318.78 282.69&#10;  L 320.23 285.47&#10;  Q 320.52 286.02 321.12 286.15&#10;  Q 321.49 286.22 321.53 286.54&#10;  Q 321.76 288.32 320.68 286.85&#10;  Z"/>
<ellipse fill="#414142" cx="0.00" cy="0.00" transform="translate(176.36,286.78) rotate(52.9)" rx="2.80" ry="0.31"/>
<path fill="#6290ca" d="&#10;  M 166.37 286.72&#10;  Q 167.93 286.75 168.21 287.88&#10;  Q 168.37 288.56 167.88 288.99&#10;  Q 167.44 289.38 166.70 289.49&#10;  L 166.37 286.72&#10;  Z"/>
<path fill="#414142" d="&#10;  M 186.14 295.32&#10;  Q 184.78 296.41 184.51 297.58&#10;  Q 184.13 297.64 183.50 297.32&#10;  Q 184.24 294.93 186.33 293.36&#10;  Q 186.46 293.26 186.56 293.38&#10;  L 186.74 293.59&#10;  A 0.28 0.28 0.0 0 1 186.73 293.96&#10;  Q 186.14 294.57 186.14 295.32&#10;  Z"/>
<path fill="#414142" d="&#10;  M 245.79 308.49&#10;  Q 244.40 310.22 243.04 312.01&#10;  Q 239.68 316.44 239.93 322.19&#10;  Q 240.00 323.77 241.58 323.76&#10;  L 242.02 323.76&#10;  Q 243.04 323.76 243.05 322.74&#10;  Q 243.12 318.87 243.72 317.24&#10;  Q 245.03 313.67 250.21 308.04&#10;  Q 254.77 307.71 261.00 307.80&#10;  Q 262.17 307.82 262.94 308.52&#10;  C 270.37 315.24 270.21 326.54 261.31 331.94&#10;  C 251.70 337.77 237.87 331.79 237.31 319.72&#10;  C 237.14 315.88 240.01 306.49 245.79 308.49&#10;  Z"/>
<path fill="#ffffff" d="&#10;  M 273.07 307.96&#10;  Q 274.32 311.93 274.18 315.71&#10;  L 270.27 316.35&#10;  Q 269.67 316.45 269.53 315.86&#10;  Q 268.57 311.73 265.44 308.45&#10;  Q 264.93 307.92 265.67 307.92&#10;  L 273.07 307.96&#10;  Z"/>
<path fill="#959897" d="&#10;  M 284.33 308.26&#10;  L 284.65 315.74&#10;  Q 279.25 314.92 274.18 315.71&#10;  Q 274.32 311.93 273.07 307.96&#10;  L 284.33 308.26&#10;  Z"/>
<path fill="#ffffff" d="&#10;  M 250.21 308.04&#10;  Q 245.03 313.67 243.72 317.24&#10;  Q 243.12 318.87 243.05 322.74&#10;  Q 243.04 323.76 242.02 323.76&#10;  L 241.58 323.76&#10;  Q 240.00 323.77 239.93 322.19&#10;  Q 239.68 316.44 243.04 312.01&#10;  Q 244.40 310.22 245.79 308.49&#10;  Q 246.73 307.62 250.21 308.04&#10;  Z"/>
<path fill="#ffffff" d="&#10;  M 212.33 317.43&#10;  Q 209.30 316.93 205.44 317.86&#10;  Q 204.29 318.09 204.23 317.00&#10;  Q 204.15 315.59 205.44 310.46&#10;  L 239.44 308.21&#10;  A 0.27 0.27 0.0 0 1 239.65 308.66&#10;  Q 237.47 311.04 236.28 314.43&#10;  Q 236.09 314.97 235.52 315.03&#10;  L 212.33 317.43&#10;  Z"/>
<path fill="#ffffff" d="&#10;  M 284.33 308.26&#10;  L 293.24 308.64&#10;  Q 293.93 308.67 293.50 309.22&#10;  Q 290.93 312.39 290.24 316.51&#10;  Q 290.14 317.08 289.58 316.94&#10;  L 284.65 315.74&#10;  L 284.33 308.26&#10;  Z"/>
<path fill="#414142" d="&#10;  M 295.62 312.17&#10;  Q 293.13 316.73 293.59 322.24&#10;  Q 293.72 323.85 295.43 323.83&#10;  A 1.20 1.20 0.0 0 0 296.60 322.51&#10;  Q 295.78 314.86 302.43 309.32&#10;  Q 305.69 309.03 310.75 309.56&#10;  C 311.96 309.69 313.11 309.97 313.79 311.11&#10;  Q 318.59 319.08 314.76 326.99&#10;  C 309.97 336.87 297.30 336.15 293.00 326.13&#10;  Q 290.11 319.39 293.37 312.20&#10;  Q 294.33 310.08 295.70 309.20&#10;  Q 297.63 307.97 296.19 309.74&#10;  Q 295.19 310.97 295.62 312.17&#10;  Z"/>
<path fill="#ffffff" d="&#10;  M 302.43 309.32&#10;  Q 295.78 314.86 296.60 322.51&#10;  A 1.20 1.20 0.0 0 1 295.43 323.83&#10;  Q 293.72 323.85 293.59 322.24&#10;  Q 293.13 316.73 295.62 312.17&#10;  Q 297.82 307.35 302.43 309.32&#10;  Z"/>
<path fill="#72665d" d="&#10;  M 323.35 324.13&#10;  Q 322.55 324.28 321.83 324.54&#10;  Q 321.34 324.71 321.08 324.27&#10;  Q 317.16 317.80 317.27 310.66&#10;  A 0.55 0.55 0.0 0 1 317.86 310.12&#10;  Q 328.53 310.79 339.09 312.70&#10;  Q 343.84 313.55 348.20 315.25&#10;  A 0.96 0.96 0.0 0 1 348.47 316.87&#10;  Q 347.72 317.53 346.74 317.86&#10;  Q 334.95 321.93 323.35 324.13&#10;  Z"/>
<path fill="#959897" d="&#10;  M 205.44 310.46&#10;  Q 204.15 315.59 204.23 317.00&#10;  Q 204.29 318.09 205.44 317.86&#10;  Q 204.16 317.81 204.00 318.33&#10;  Q 198.63 317.79 193.40 318.78&#10;  Q 193.63 319.08 192.98 318.77&#10;  C 187.63 319.62 185.95 324.64 183.95 329.60&#10;  Q 183.41 330.93 184.67 331.60&#10;  L 185.22 331.89&#10;  A 1.41 1.40 26.0 0 0 187.15 331.23&#10;  L 190.06 324.78&#10;  A 4.07 4.06 -80.1 0 1 193.44 322.40&#10;  L 203.89 321.54&#10;  Q 202.24 330.29 204.35 339.23&#10;  Q 206.59 348.73 213.98 355.04&#10;  Q 221.75 361.68 230.03 367.67&#10;  Q 235.48 371.62 238.63 376.35&#10;  C 227.74 370.91 221.30 366.94 211.79 364.69&#10;  C 209.65 364.18 207.68 365.22 205.80 364.46&#10;  C 203.12 363.38 200.30 364.72 197.89 363.35&#10;  C 195.75 362.13 192.57 361.14 191.42 358.81&#10;  Q 180.49 336.73 184.25 313.48&#10;  Q 184.35 312.89 184.94 312.82&#10;  L 205.44 310.46&#10;  Z"/>
<path fill="#72665d" d="&#10;  M 180.67 327.06&#10;  L 169.41 325.80&#10;  Q 160.28 324.90 152.47 321.65&#10;  Q 151.90 321.41 151.92 320.79&#10;  Q 151.96 319.55 153.28 319.09&#10;  C 162.20 316.00 171.82 314.63 181.27 313.21&#10;  A 0.41 0.41 0.0 0 1 181.74 313.65&#10;  L 180.67 327.06&#10;  Z"/>
<path fill="#414142" d="&#10;  M 212.33 317.43&#10;  Q 217.75 318.28 223.50 317.51&#10;  Q 224.03 317.44 224.43 317.79&#10;  Q 225.01 318.29 224.25 318.35&#10;  C 214.04 319.19 204.04 320.06 194.15 319.79&#10;  Q 193.74 319.77 193.43 319.50&#10;  Q 193.09 319.20 192.98 318.77&#10;  Q 193.63 319.08 193.40 318.78&#10;  L 204.15 319.16&#10;  A 0.50 0.49 79.6 0 0 204.62 318.47&#10;  Q 204.46 318.08 204.00 318.33&#10;  Q 204.16 317.81 205.44 317.86&#10;  Q 209.30 316.93 212.33 317.43&#10;  Z"/>
<path fill="#010101" d="&#10;  M 204.00 318.33&#10;  Q 204.46 318.08 204.62 318.47&#10;  A 0.50 0.49 79.6 0 1 204.15 319.16&#10;  L 193.40 318.78&#10;  Q 198.63 317.79 204.00 318.33&#10;  Z"/>
<path fill="#959897" d="&#10;  M 285.19 318.41&#10;  Q 284.72 320.91 285.66 323.23&#10;  A 1.07 1.06 -1.2 0 0 286.31 323.85&#10;  L 288.51 324.61&#10;  Q 288.14 324.81 288.19 324.95&#10;  L 283.35 323.62&#10;  Q 278.98 322.49 274.26 323.37&#10;  L 274.35 318.89&#10;  Q 279.71 317.93 285.19 318.41&#10;  Z"/>
<path fill="#ffffff" d="&#10;  M 285.19 318.41&#10;  L 289.42 318.97&#10;  Q 290.05 319.05 290.03 319.68&#10;  Q 289.95 322.50 290.92 325.30&#10;  Q 291.21 326.12 290.45 325.70&#10;  L 288.51 324.61&#10;  L 286.31 323.85&#10;  A 1.07 1.06 -1.2 0 1 285.66 323.23&#10;  Q 284.72 320.91 285.19 318.41&#10;  Z"/>
<path fill="#ffffff" d="&#10;  M 274.35 318.89&#10;  L 274.26 323.37&#10;  Q 270.76 324.09 268.41 326.84&#10;  Q 268.34 326.93 268.39 326.82&#10;  Q 269.87 323.64 270.14 320.20&#10;  Q 270.18 319.70 270.67 319.60&#10;  L 274.35 318.89&#10;  Z"/>
<path fill="#ffffff" d="&#10;  M 238.63 376.35&#10;  Q 235.48 371.62 230.03 367.67&#10;  Q 221.75 361.68 213.98 355.04&#10;  Q 206.59 348.73 204.35 339.23&#10;  Q 202.24 330.29 203.89 321.54&#10;  L 234.77 319.69&#10;  Q 235.48 319.65 235.57 320.35&#10;  Q 236.87 331.12 247.31 334.99&#10;  C 254.66 337.72 263.61 334.79 267.70 327.97&#10;  Q 268.06 327.37 268.29 328.03&#10;  Q 269.20 330.67 272.81 331.84&#10;  C 278.15 333.58 288.52 334.53 292.06 328.86&#10;  Q 292.37 328.37 292.68 328.86&#10;  C 300.01 340.52 315.23 336.10 317.70 323.30&#10;  Q 317.89 322.30 318.32 323.22&#10;  Q 324.46 336.40 322.31 347.51&#10;  C 321.20 353.26 317.76 362.25 313.13 367.42&#10;  C 311.44 369.32 310.10 371.38 308.24 373.14&#10;  Q 301.77 379.28 294.10 385.39&#10;  C 283.55 393.78 266.47 390.98 255.15 385.12&#10;  Q 246.58 380.69 238.63 376.35&#10;  Z"/>
<path fill="#fcaf46" d="&#10;  M 283.35 323.62&#10;  L 288.19 324.95&#10;  L 290.63 327.10&#10;  A 1.07 1.06 -43.7 0 1 290.59 328.72&#10;  C 285.93 332.53 276.78 332.33 271.81 330.75&#10;  Q 269.92 330.15 268.90 328.30&#10;  Q 268.63 327.82 269.01 327.42&#10;  C 272.01 324.24 279.18 323.82 283.35 323.62&#10;  Z"/>
<path fill="#959897" d="&#10;  M 149.60 351.64&#10;  C 149.27 349.40 149.06 342.47 153.33 343.42&#10;  Q 155.59 343.93 157.50 345.10&#10;  Q 162.02 347.87 166.49 350.95&#10;  A 3.71 3.68 10.1 0 1 167.94 353.01&#10;  C 172.68 370.42 175.81 388.12 179.46 405.92&#10;  Q 179.59 406.55 179.05 406.20&#10;  C 172.73 402.10 168.72 395.93 164.59 389.78&#10;  Q 152.55 371.89 149.60 351.64&#10;  Z"/>
<path fill="#fadfea" d="&#10;  M 193.58 362.24&#10;  Q 187.17 364.27 184.97 369.52&#10;  Q 184.27 371.22 183.69 373.12&#10;  Q 181.11 381.70 179.30 390.52&#10;  Q 179.24 390.83 178.93 390.86&#10;  Q 178.74 390.88 178.58 390.79&#10;  Q 175.20 371.95 169.94 353.55&#10;  Q 169.44 351.84 168.89 350.74&#10;  Q 168.29 349.57 169.47 350.16&#10;  L 193.58 362.24&#10;  Z"/>
<path fill="#959897" d="&#10;  M 341.61 386.32&#10;  Q 340.27 389.54 338.79 392.65&#10;  C 338.45 393.36 337.90 393.50 337.59 394.25&#10;  Q 337.18 395.24 337.33 394.18&#10;  C 339.22 381.40 340.53 367.83 337.04 355.09&#10;  A 0.69 0.68 -16.5 0 1 337.50 354.25&#10;  Q 341.41 353.00 344.99 352.37&#10;  C 352.56 351.03 350.54 360.63 349.38 364.54&#10;  Q 346.20 375.26 341.61 386.32&#10;  Z"/>
<path fill="#fadfea" d="&#10;  M 332.81 407.30&#10;  Q 332.65 407.09 332.61 406.83&#10;  Q 332.53 406.31 332.03 406.21&#10;  L 331.54 406.10&#10;  A 1.02 1.01 82.3 0 1 330.85 405.57&#10;  Q 329.50 402.93 329.25 400.36&#10;  C 328.86 396.43 327.52 392.90 326.37 389.22&#10;  C 325.19 385.48 323.26 382.07 321.65 378.36&#10;  C 321.22 377.36 320.53 376.71 319.89 375.85&#10;  C 319.10 374.80 317.61 374.79 316.76 375.77&#10;  Q 312.68 372.83 312.41 369.64&#10;  Q 313.56 367.41 314.58 366.85&#10;  Q 325.35 368.88 335.75 370.58&#10;  Q 336.42 370.69 336.47 370.67&#10;  A 0.97 0.96 -24.5 0 0 336.96 369.37&#10;  Q 332.60 360.18 321.66 360.87&#10;  Q 327.18 356.48 333.60 353.67&#10;  A 1.23 1.22 -21.6 0 1 335.25 354.38&#10;  Q 337.55 360.81 337.58 368.26&#10;  Q 337.67 387.74 332.92 407.12&#10;  Q 332.90 407.18 332.87 407.22&#10;  Q 332.84 407.26 332.81 407.30&#10;  Z"/>
<path fill="#ef7191" d="&#10;  M 321.66 360.87&#10;  Q 332.60 360.18 336.96 369.37&#10;  A 0.97 0.96 -24.5 0 1 336.47 370.67&#10;  Q 336.42 370.69 335.75 370.58&#10;  Q 325.35 368.88 314.58 366.85&#10;  Q 318.18 362.60 321.66 360.87&#10;  Z"/>
<path fill="#ef7191" d="&#10;  M 193.58 362.24&#10;  Q 200.99 365.84 208.35 369.51&#10;  Q 208.56 369.62 208.67 369.41&#10;  L 208.67 369.40&#10;  Q 208.78 369.18 208.57 369.08&#10;  Q 204.90 367.25 202.94 366.10&#10;  Q 199.95 364.34 203.36 364.99&#10;  Q 207.97 365.86 212.36 367.60&#10;  Q 211.54 368.95 210.61 369.48&#10;  A 0.77 0.77 0.0 0 0 210.54 370.78&#10;  L 213.95 373.27&#10;  Q 212.12 373.41 211.80 372.99&#10;  Q 210.89 371.40 209.55 371.04&#10;  Q 209.05 370.91 208.66 371.24&#10;  Q 194.70 383.25 179.46 394.05&#10;  L 178.58 390.79&#10;  Q 178.74 390.88 178.93 390.86&#10;  Q 179.24 390.83 179.30 390.52&#10;  Q 181.11 381.70 183.69 373.12&#10;  Q 184.27 371.22 184.97 369.52&#10;  Q 187.17 364.27 193.58 362.24&#10;  Z"/>
<path fill="#fadfea" d="&#10;  M 218.85 367.44&#10;  L 218.42 369.31&#10;  Q 215.27 368.10 212.27 366.61&#10;  C 211.13 366.04 210.12 366.01 208.92 365.79&#10;  Q 208.11 365.64 208.87 365.32&#10;  Q 210.27 364.71 211.52 365.18&#10;  C 213.97 366.10 215.97 366.22 218.85 367.44&#10;  Z"/>
<path fill="#ef7191" d="&#10;  M 218.85 367.44&#10;  L 245.96 381.57&#10;  Q 245.42 383.24 243.72 384.89&#10;  L 218.42 369.31&#10;  L 218.85 367.44&#10;  Z"/>
<path fill="#ffffff" d="&#10;  M 212.36 367.60&#10;  L 218.08 370.10&#10;  Q 214.02 394.26 212.12 418.25&#10;  Q 210.97 432.73 211.07 447.24&#10;  A 0.39 0.39 0.0 0 0 211.62 447.59&#10;  Q 211.89 447.47 212.09 447.11&#10;  Q 223.66 425.01 234.57 402.58&#10;  Q 236.40 398.81 243.65 385.78&#10;  L 248.22 388.56&#10;  Q 245.11 410.91 246.94 432.95&#10;  Q 248.87 456.12 254.24 477.47&#10;  Q 254.85 479.88 255.57 477.50&#10;  Q 267.32 438.51 275.31 398.54&#10;  Q 275.41 398.04 275.89 397.84&#10;  Q 276.72 397.50 277.91 397.61&#10;  L 280.75 397.22&#10;  Q 283.64 410.09 287.02 422.51&#10;  Q 291.79 440.06 296.60 457.32&#10;  C 297.66 461.12 298.66 465.91 298.78 469.84&#10;  Q 298.82 471.16 298.94 472.54&#10;  Q 299.12 474.45 299.73 472.63&#10;  C 308.74 445.65 307.88 416.20 298.52 389.43&#10;  L 302.61 385.73&#10;  Q 315.97 397.66 325.23 412.83&#10;  Q 326.64 415.13 327.67 417.81&#10;  Q 328.85 420.85 328.87 417.59&#10;  C 328.99 403.52 326.02 386.96 316.76 375.77&#10;  C 317.61 374.79 319.10 374.80 319.89 375.85&#10;  C 320.53 376.71 321.22 377.36 321.65 378.36&#10;  C 323.26 382.07 325.19 385.48 326.37 389.22&#10;  C 327.52 392.90 328.86 396.43 329.25 400.36&#10;  Q 329.50 402.93 330.85 405.57&#10;  A 1.02 1.01 82.3 0 0 331.54 406.10&#10;  L 332.03 406.21&#10;  Q 332.53 406.31 332.61 406.83&#10;  Q 332.65 407.09 332.81 407.30&#10;  L 328.55 423.38&#10;  Q 325.71 420.73 323.88 417.05&#10;  Q 321.65 412.55 320.68 411.16&#10;  Q 315.88 404.28 310.77 398.41&#10;  Q 309.52 396.97 308.58 395.54&#10;  C 307.46 393.82 305.82 392.36 304.07 391.36&#10;  Q 301.53 389.90 302.41 392.69&#10;  Q 306.51 405.71 307.74 417.06&#10;  C 308.11 420.45 308.77 423.87 308.90 427.34&#10;  Q 309.32 438.87 308.08 447.14&#10;  Q 307.25 452.69 306.62 458.48&#10;  C 306.34 461.11 305.18 463.28 304.63 465.90&#10;  Q 304.53 466.36 303.49 468.97&#10;  Q 302.71 470.94 303.70 473.23&#10;  L 297.32 480.50&#10;  Q 296.37 479.82 296.39 479.34&#10;  Q 296.66 467.31 293.00 456.81&#10;  Q 291.37 452.12 290.37 447.18&#10;  Q 289.40 442.44 288.04 437.90&#10;  Q 285.35 428.96 283.92 422.49&#10;  Q 282.11 414.36 279.81 405.41&#10;  Q 279.53 404.31 278.98 403.42&#10;  A 0.70 0.70 0.0 0 0 277.72 403.56&#10;  Q 275.77 409.26 274.72 414.94&#10;  C 273.06 423.85 270.94 432.53 269.05 441.25&#10;  Q 268.55 443.54 267.32 447.39&#10;  Q 266.46 450.10 265.60 453.54&#10;  Q 263.72 461.08 257.10 483.34&#10;  L 251.43 480.09&#10;  Q 247.02 460.54 245.77 451.24&#10;  Q 243.55 434.71 243.22 424.70&#10;  Q 243.03 419.22 243.09 414.09&#10;  C 243.17 407.34 243.95 400.91 244.31 394.25&#10;  Q 244.36 393.42 243.93 393.02&#10;  A 0.56 0.56 0.0 0 0 243.05 393.16&#10;  Q 237.85 402.70 233.44 412.43&#10;  Q 232.00 415.59 230.34 418.47&#10;  C 227.51 423.38 225.54 428.76 222.78 433.66&#10;  Q 219.70 439.12 216.57 444.56&#10;  C 216.14 445.32 215.92 446.24 215.59 447.04&#10;  Q 215.42 447.45 215.07 447.72&#10;  Q 213.93 448.62 213.38 450.00&#10;  A 1.93 1.93 0.0 0 0 214.04 452.27&#10;  Q 215.60 453.39 216.87 454.88&#10;  Q 217.38 455.48 217.09 457.30&#10;  L 207.87 449.21&#10;  Q 207.69 446.54 208.01 443.88&#10;  Q 208.37 440.80 208.25 438.61&#10;  Q 208.01 434.20 208.19 429.89&#10;  Q 208.86 414.51 210.61 398.61&#10;  Q 210.71 397.66 210.54 396.73&#10;  Q 210.39 395.90 210.72 395.17&#10;  Q 211.13 394.27 211.32 393.35&#10;  Q 213.42 383.08 213.95 373.27&#10;  L 210.54 370.78&#10;  A 0.77 0.77 0.0 0 1 210.61 369.48&#10;  Q 211.54 368.95 212.36 367.60&#10;  Z"/>
<path fill="#ef7191" d="&#10;  M 312.41 369.64&#10;  Q 312.68 372.83 316.76 375.77&#10;  C 326.02 386.96 328.99 403.52 328.87 417.59&#10;  Q 328.85 420.85 327.67 417.81&#10;  Q 326.64 415.13 325.23 412.83&#10;  Q 315.97 397.66 302.61 385.73&#10;  Q 307.99 379.60 312.01 372.51&#10;  Q 312.12 372.33 311.93 372.22&#10;  L 311.93 372.22&#10;  Q 311.74 372.11 311.64 372.30&#10;  Q 307.59 379.34 302.18 385.42&#10;  L 299.17 382.89&#10;  L 312.41 369.64&#10;  Z"/>
<path fill="#ef7191" d="&#10;  M 218.08 370.10&#10;  Q 231.43 377.26 243.65 385.78&#10;  Q 236.40 398.81 234.57 402.58&#10;  Q 223.66 425.01 212.09 447.11&#10;  Q 211.89 447.47 211.62 447.59&#10;  A 0.39 0.39 0.0 0 1 211.07 447.24&#10;  Q 210.97 432.73 212.12 418.25&#10;  Q 214.02 394.26 218.08 370.10&#10;  Z"/>
<path fill="#ffffff" d="&#10;  M 211.80 372.99&#10;  L 211.77 373.36&#10;  Q 211.73 373.82 211.32 374.01&#10;  Q 207.59 375.78 204.42 378.77&#10;  C 200.81 382.19 196.85 384.88 193.06 388.00&#10;  C 189.94 390.58 186.21 392.73 182.81 395.01&#10;  C 181.97 395.57 181.84 396.29 180.99 396.77&#10;  A 0.04 0.04 0.0 0 0 181.01 396.84&#10;  Q 181.17 396.84 181.26 396.97&#10;  Q 181.42 397.20 181.27 397.44&#10;  Q 180.84 398.12 180.19 397.75&#10;  Q 179.29 395.23 179.46 394.05&#10;  Q 194.70 383.25 208.66 371.24&#10;  Q 209.05 370.91 209.55 371.04&#10;  Q 210.89 371.40 211.80 372.99&#10;  Z"/>
<path fill="#fadfea" d="&#10;  M 211.80 372.99&#10;  Q 212.12 373.41 213.95 373.27&#10;  Q 213.42 383.08 211.32 393.35&#10;  Q 211.13 394.27 210.72 395.17&#10;  Q 210.39 395.90 210.54 396.73&#10;  Q 210.71 397.66 210.61 398.61&#10;  Q 208.86 414.51 208.19 429.89&#10;  Q 208.01 434.20 208.25 438.61&#10;  Q 208.37 440.80 208.01 443.88&#10;  Q 207.69 446.54 207.87 449.21&#10;  Q 185.05 428.54 180.19 397.75&#10;  Q 180.84 398.12 181.27 397.44&#10;  Q 181.42 397.20 181.26 396.97&#10;  Q 181.17 396.84 181.01 396.84&#10;  A 0.04 0.04 0.0 0 1 180.99 396.77&#10;  C 181.84 396.29 181.97 395.57 182.81 395.01&#10;  C 186.21 392.73 189.94 390.58 193.06 388.00&#10;  C 196.85 384.88 200.81 382.19 204.42 378.77&#10;  Q 207.59 375.78 211.32 374.01&#10;  Q 211.73 373.82 211.77 373.36&#10;  L 211.80 372.99&#10;  Z"/>
<path fill="#ffffff" d="&#10;  M 245.96 381.57&#10;  L 249.44 383.46&#10;  L 248.35 387.65&#10;  L 243.72 384.89&#10;  Q 245.42 383.24 245.96 381.57&#10;  Z"/>
<path fill="#ffffff" d="&#10;  M 299.17 382.89&#10;  L 302.18 385.42&#10;  L 298.43 388.82&#10;  L 296.47 385.39&#10;  L 299.17 382.89&#10;  Z"/>
<path fill="#ef7191" d="&#10;  M 249.44 383.46&#10;  Q 253.62 385.89 257.76 387.79&#10;  Q 267.29 392.17 277.25 392.32&#10;  Q 275.92 393.16 276.06 396.86&#10;  C 266.35 396.58 256.34 392.81 248.35 387.65&#10;  L 249.44 383.46&#10;  Z"/>
<path fill="#ef7191" d="&#10;  M 296.47 385.39&#10;  L 298.43 388.82&#10;  Q 290.64 395.30 280.63 396.50&#10;  L 279.79 392.25&#10;  C 284.71 391.96 289.54 390.58 293.49 387.62&#10;  Q 294.98 386.50 296.47 385.39&#10;  Z"/>
<path fill="#ef7191" d="&#10;  M 248.22 388.56&#10;  Q 252.49 391.10 256.42 392.88&#10;  Q 266.78 397.60 277.91 397.61&#10;  Q 276.72 397.50 275.89 397.84&#10;  Q 275.41 398.04 275.31 398.54&#10;  Q 267.32 438.51 255.57 477.50&#10;  Q 254.85 479.88 254.24 477.47&#10;  Q 248.87 456.12 246.94 432.95&#10;  Q 245.11 410.91 248.22 388.56&#10;  Z"/>
<path fill="#ef7191" d="&#10;  M 298.52 389.43&#10;  C 307.88 416.20 308.74 445.65 299.73 472.63&#10;  Q 299.12 474.45 298.94 472.54&#10;  Q 298.82 471.16 298.78 469.84&#10;  C 298.66 465.91 297.66 461.12 296.60 457.32&#10;  Q 291.79 440.06 287.02 422.51&#10;  Q 283.64 410.09 280.75 397.22&#10;  Q 290.58 395.92 298.52 389.43&#10;  Z"/>
<path fill="#fadfea" d="&#10;  M 328.55 423.38&#10;  Q 322.08 445.68 309.33 465.56&#10;  Q 307.10 469.03 303.70 473.23&#10;  Q 302.71 470.94 303.49 468.97&#10;  Q 304.53 466.36 304.63 465.90&#10;  C 305.18 463.28 306.34 461.11 306.62 458.48&#10;  Q 307.25 452.69 308.08 447.14&#10;  Q 309.32 438.87 308.90 427.34&#10;  C 308.77 423.87 308.11 420.45 307.74 417.06&#10;  Q 306.51 405.71 302.41 392.69&#10;  Q 301.53 389.90 304.07 391.36&#10;  C 305.82 392.36 307.46 393.82 308.58 395.54&#10;  Q 309.52 396.97 310.77 398.41&#10;  Q 315.88 404.28 320.68 411.16&#10;  Q 321.65 412.55 323.88 417.05&#10;  Q 325.71 420.73 328.55 423.38&#10;  Z"/>
<path fill="#ffffff" d="&#10;  M 277.25 392.32&#10;  L 279.79 392.25&#10;  L 280.63 396.50&#10;  L 276.06 396.86&#10;  Q 275.92 393.16 277.25 392.32&#10;  Z"/>
<path fill="#fadfea" d="&#10;  M 251.43 480.09&#10;  Q 232.69 469.74 217.09 457.30&#10;  Q 217.38 455.48 216.87 454.88&#10;  Q 215.60 453.39 214.04 452.27&#10;  A 1.93 1.93 0.0 0 1 213.38 450.00&#10;  Q 213.93 448.62 215.07 447.72&#10;  Q 215.42 447.45 215.59 447.04&#10;  C 215.92 446.24 216.14 445.32 216.57 444.56&#10;  Q 219.70 439.12 222.78 433.66&#10;  C 225.54 428.76 227.51 423.38 230.34 418.47&#10;  Q 232.00 415.59 233.44 412.43&#10;  Q 237.85 402.70 243.05 393.16&#10;  A 0.56 0.56 0.0 0 1 243.93 393.02&#10;  Q 244.36 393.42 244.31 394.25&#10;  C 243.95 400.91 243.17 407.34 243.09 414.09&#10;  Q 243.03 419.22 243.22 424.70&#10;  Q 243.55 434.71 245.77 451.24&#10;  Q 247.02 460.54 251.43 480.09&#10;  Z"/>
<path fill="#fadfea" d="&#10;  M 297.32 480.50&#10;  Q 289.35 488.48 279.98 494.19&#10;  A 1.52 1.51 -47.2 0 1 278.49 494.25&#10;  L 257.10 483.34&#10;  Q 263.72 461.08 265.60 453.54&#10;  Q 266.46 450.10 267.32 447.39&#10;  Q 268.55 443.54 269.05 441.25&#10;  C 270.94 432.53 273.06 423.85 274.72 414.94&#10;  Q 275.77 409.26 277.72 403.56&#10;  A 0.70 0.70 0.0 0 1 278.98 403.42&#10;  Q 279.53 404.31 279.81 405.41&#10;  Q 282.11 414.36 283.92 422.49&#10;  Q 285.35 428.96 288.04 437.90&#10;  Q 289.40 442.44 290.37 447.18&#10;  Q 291.37 452.12 293.00 456.81&#10;  Q 296.66 467.31 296.39 479.34&#10;  Q 296.37 479.82 297.32 480.50&#10;  Z"/>
<path fill="#959897" d="&#10;  M 174.57 406.99&#10;  C 176.20 407.82 177.99 409.04 179.74 409.63&#10;  Q 180.61 409.92 180.86 410.75&#10;  Q 185.96 427.69 196.11 439.89&#10;  Q 204.12 449.51 214.65 457.93&#10;  Q 214.35 469.84 221.96 478.03&#10;  C 224.04 480.26 227.42 482.50 230.01 484.93&#10;  L 224.82 487.63&#10;  A 2.30 2.29 36.7 0 1 223.30 487.85&#10;  C 207.46 484.80 192.15 476.67 182.43 463.59&#10;  C 170.43 447.44 169.38 427.74 174.87 408.50&#10;  Q 175.00 408.03 174.44 407.78&#10;  L 174.57 406.99&#10;  Z"/>
<path fill="#ffffff" d="&#10;  M 299.68 479.26&#10;  C 315.22 462.25 325.50 441.12 332.08 418.67&#10;  Q 332.19 418.30 332.46 417.99&#10;  Q 332.76 417.64 332.82 418.11&#10;  C 333.67 425.69 334.11 434.08 332.73 441.48&#10;  C 329.25 460.02 314.70 473.94 297.80 481.69&#10;  Q 297.68 481.74 297.61 481.64&#10;  L 297.47 481.41&#10;  Q 297.38 481.27 297.52 481.17&#10;  Q 298.70 480.33 299.68 479.26&#10;  Z"/>
<path fill="#ffffff" d="&#10;  M 214.65 457.93&#10;  C 230.42 470.26 247.46 480.05 265.39 488.82&#10;  Q 266.42 489.32 265.28 489.42&#10;  L 259.24 489.95&#10;  Q 258.66 490.00 258.28 489.55&#10;  C 252.07 482.27 238.17 482.60 230.01 484.93&#10;  C 227.42 482.50 224.04 480.26 221.96 478.03&#10;  Q 214.35 469.84 214.65 457.93&#10;  Z"/>
<path fill="#fcaf46" d="&#10;  M 257.06 493.71&#10;  Q 254.68 496.92 249.79 497.73&#10;  Q 237.36 499.83 225.74 495.94&#10;  Q 225.11 495.19 224.35 494.54&#10;  C 222.51 492.95 221.97 491.14 223.54 488.96&#10;  Q 227.06 486.91 228.36 486.58&#10;  C 236.14 484.60 249.20 483.79 256.04 488.96&#10;  Q 258.86 491.09 257.06 493.71&#10;  Z"/>
<path fill="#fcaf46" d="&#10;  M 302.69 493.25&#10;  Q 299.90 495.84 295.82 496.86&#10;  Q 284.99 498.41 274.65 495.76&#10;  Q 274.17 495.64 273.83 495.29&#10;  Q 273.35 494.80 272.89 494.66&#10;  C 272.43 493.34 271.19 492.44 269.76 492.22&#10;  Q 268.86 492.08 268.37 491.76&#10;  Q 269.60 490.90 271.26 491.72&#10;  Q 275.00 493.56 278.48 495.07&#10;  A 1.90 1.88 -49.0 0 0 280.24 494.94&#10;  Q 283.55 492.85 286.66 490.52&#10;  C 289.83 488.14 293.37 487.10 296.98 485.86&#10;  Q 297.48 485.69 297.98 485.85&#10;  C 301.10 486.87 305.56 489.17 302.69 493.25&#10;  Z"/>
<path fill="#010101" d="&#10;  M 272.89 494.66&#10;  Q 273.35 494.80 273.83 495.29&#10;  Q 274.17 495.64 274.65 495.76&#10;  Q 284.99 498.41 295.82 496.86&#10;  Q 291.82 497.86 287.70 498.46&#10;  C 285.04 498.84 282.61 498.31 280.00 498.03&#10;  Q 277.96 497.81 276.14 497.11&#10;  Q 274.17 496.34 272.53 495.36&#10;  Q 272.23 495.19 272.07 494.88&#10;  Q 271.79 494.33 272.39 494.51&#10;  L 272.89 494.66&#10;  Z"/>
<path fill="#010101" d="&#10;  M 225.74 495.94&#10;  Q 237.36 499.83 249.79 497.73&#10;  Q 245.41 499.36 241.88 499.68&#10;  Q 233.12 500.49 225.74 495.94&#10;  Z"/>
</svg>